<?xml version="1.0" encoding="UTF-8" standalone="no"?>
<svg
   width="60"
   height="34"
   viewBox="0 0 15.875001 8.9958331"
   version="1.1"
   id="svg8"
   inkscape:version="1.1.2 (b8e25be833, 2022-02-05)"
   sodipodi:docname="euclides_p.svg"
   xmlns:inkscape="http://www.inkscape.org/namespaces/inkscape"
   xmlns:sodipodi="http://sodipodi.sourceforge.net/DTD/sodipodi-0.dtd"
   xmlns="http://www.w3.org/2000/svg"
   xmlns:svg="http://www.w3.org/2000/svg"
   xmlns:rdf="http://www.w3.org/1999/02/22-rdf-syntax-ns#"
   xmlns:cc="http://creativecommons.org/ns#"
   xmlns:dc="http://purl.org/dc/elements/1.1/">
  <defs
     id="defs2" />
  <sodipodi:namedview
     id="base"
     pagecolor="#ffffff"
     bordercolor="#666666"
     borderopacity="1.0"
     inkscape:pageopacity="0.0"
     inkscape:pageshadow="2"
     inkscape:zoom="2"
     inkscape:cx="-73"
     inkscape:cy="18"
     inkscape:document-units="cm"
     inkscape:current-layer="g36777"
     inkscape:document-rotation="0"
     showgrid="false"
     units="px"
     inkscape:pagecheckerboard="true"
     inkscape:showpageshadow="false"
     width="1000px"
     showborder="true"
     inkscape:window-width="1920"
     inkscape:window-height="1017"
     inkscape:window-x="-8"
     inkscape:window-y="-8"
     inkscape:window-maximized="1" />
  <metadata
     id="metadata5">
    <rdf:RDF>
      <cc:Work
         rdf:about="">
        <dc:format>image/svg+xml</dc:format>
        <dc:type
           rdf:resource="http://purl.org/dc/dcmitype/StillImage" />
      </cc:Work>
    </rdf:RDF>
  </metadata>
  <g
     inkscape:label="Layer 1"
     inkscape:groupmode="layer"
     id="layer1">
    <g
       id="g36777"
       transform="matrix(0.75177557,0,0,0.75177557,-0.99813918,0.65206261)"
       style="stroke-width:1.33018">
      <g
         id="g3286">
        <g
           aria-label="e"
           id="text44337"
           style="font-size:11.2889px;line-height:1.25;-inkscape-font-specification:'sans-serif, Normal';text-align:center;letter-spacing:1.32292px;text-anchor:middle;fill:#f9f9f9;stroke-width:0.351944">
          <path
             d="m 10.349379,6.8964741 c 0.04516,-0.2822225 0.112889,-0.7450674 0.169333,-1.3433792 0.564446,-0.1354668 1.185335,-0.3160892 1.253068,-0.3160892 0.158045,-0.056445 0.564445,-0.2483558 0.564445,-0.2483558 l 0.07902,-0.1354668 0.4064,-0.1016001 -0.01129,-0.112889 0.372534,-0.2370669 -0.146756,-0.011289 0.349956,-0.1919113 0.04516,-0.2709336 c 0,0 0.09031,-0.1693335 0.09031,-0.2370669 -0.609601,-0.011289 -1.840091,0.056444 -2.833514,0.1806224 0.02258,-0.2709336 0.04516,-0.5418672 0.05644,-0.8353786 0,-0.090311 0.01129,-0.1806224 0.01129,-0.2709337 0.993424,-0.1580446 2.144891,-0.3499559 2.201336,-0.3499559 0.06773,-0.022578 0.519289,-0.2144891 0.519289,-0.2144891 l 0.01129,-0.1354668 0.372534,-0.1919113 -0.225778,-0.011289 c 0,0 0.225778,-0.1580446 0.259645,-0.1919113 0.146755,-0.1580446 0.349956,-0.2483558 0.349956,-0.2483558 0,0 -0.01129,-0.2144891 0.01129,-0.2935114 C 13.52156,1.1165571 10.936402,1.0601126 9.7397784,1.2181572 9.2882224,1.1730016 8.8479552,1.353624 8.8479552,1.353624 9.0511554,2.0761136 8.9947109,5.4740726 8.9947109,7.4044746 8.8931108,7.4383413 8.8140885,7.472208 8.757644,7.5060747 8.193199,7.7995861 8.8366663,9.2784321 9.1866222,9.1090986 11.455691,8.0027863 13.848938,7.472208 13.961827,7.472208 14.108583,7.4157635 14.165027,7.2577189 14.356939,7.1109632 14.537561,6.9642075 14.85365,6.8400296 14.85365,6.8400296 l -0.316089,-0.033867 0.428978,-0.2032002 0.05645,-0.1354668 c 0,0 0.214489,-0.2032002 0.214489,-0.2822225 -1.298224,-0.2483558 -3.364092,0.2144891 -4.888094,0.7112007 z"
             style="font-family:BlowBrush;-inkscape-font-specification:BlowBrush"
             id="path2343" />
        </g>
        <g
           id="g36611"
           transform="translate(-13.394817,0.20306196)"
           style="fill:#f9f9f9;stroke-width:1.33018">
          <g
             aria-label="i"
             transform="rotate(-143.33237)"
             id="text35803"
             style="font-size:10.1476px;line-height:1.25;-inkscape-font-specification:'sans-serif, Normal';text-align:center;letter-spacing:1.18917px;word-spacing:0px;text-anchor:middle;stroke-width:0.351944">
            <path
               d="m -16.629521,4.9695317 c -0.101476,0.020295 -0.152214,0.1116236 -0.142066,0.152214 0.233395,1.2075645 0.202952,6.9206633 0.273985,7.3468623 0.04059,0 0.131919,-0.111623 0.131919,-0.111623 l 0.08118,-0.273986 0.08118,0.07103 0.172509,-0.233395 0.29428,-0.172509 0.131919,-0.375462 0.121771,-0.03044 0.05074,-0.25369 0.07103,0.09133 c 0,0 0.2131,-2.4658668 0.294281,-4.56642 0.06088,-1.8773061 -1.116236,-1.7555349 -1.562731,-1.6439113 z"
               style="font-family:BlowBrush;-inkscape-font-specification:BlowBrush"
               id="path2331" />
          </g>
          <g
             aria-label="i"
             transform="matrix(-0.80211315,0.59717208,0.59717208,0.80211315,0,0)"
             id="text36359"
             style="font-size:10.1476px;line-height:1.25;-inkscape-font-specification:'sans-serif, Normal';text-align:center;letter-spacing:1.18917px;word-spacing:0px;text-anchor:middle;stroke-width:0.351944">
            <path
               d="m -10.762147,12.850507 c -0.101476,0.02029 -0.152214,0.111623 -0.142067,0.152214 0.233395,1.207564 0.202952,6.920663 0.273986,7.346862 0.04059,0 0.131918,-0.111624 0.131918,-0.111624 l 0.08118,-0.273985 0.08118,0.07103 0.172509,-0.233394 0.2942806,-0.17251 0.1319188,-0.375461 0.1217713,-0.03044 0.050738,-0.25369 0.071033,0.09133 c 0,0 0.2130996,-2.465867 0.2942804,-4.56642 0.060886,-1.877306 -1.1162363,-1.755535 -1.5627303,-1.643911 z"
               style="font-family:BlowBrush;-inkscape-font-specification:BlowBrush"
               id="path2334" />
          </g>
        </g>
        <g
           id="g36621"
           transform="matrix(-1,0,0,1,37.16691,0.20306196)"
           style="fill:#f9f9f9;stroke-width:1.33018">
          <g
             aria-label="i"
             transform="rotate(-143.33237)"
             id="text36615"
             style="font-size:10.1476px;line-height:1.25;-inkscape-font-specification:'sans-serif, Normal';text-align:center;letter-spacing:1.18917px;word-spacing:0px;text-anchor:middle;stroke-width:0.351944">
            <path
               d="m -16.629521,4.9695317 c -0.101476,0.020295 -0.152214,0.1116236 -0.142066,0.152214 0.233395,1.2075645 0.202952,6.9206633 0.273985,7.3468623 0.04059,0 0.131919,-0.111623 0.131919,-0.111623 l 0.08118,-0.273986 0.08118,0.07103 0.172509,-0.233395 0.29428,-0.172509 0.131919,-0.375462 0.121771,-0.03044 0.05074,-0.25369 0.07103,0.09133 c 0,0 0.2131,-2.4658668 0.294281,-4.56642 0.06088,-1.8773061 -1.116236,-1.7555349 -1.562731,-1.6439113 z"
               style="font-family:BlowBrush;-inkscape-font-specification:BlowBrush"
               id="path2337" />
          </g>
          <g
             aria-label="i"
             transform="matrix(-0.80211315,0.59717208,0.59717208,0.80211315,0,0)"
             id="text36619"
             style="font-size:10.1476px;line-height:1.25;-inkscape-font-specification:'sans-serif, Normal';text-align:center;letter-spacing:1.18917px;word-spacing:0px;text-anchor:middle;stroke-width:0.351944">
            <path
               d="m -10.762147,12.850507 c -0.101476,0.02029 -0.152214,0.111623 -0.142067,0.152214 0.233395,1.207564 0.202952,6.920663 0.273986,7.346862 0.04059,0 0.131918,-0.111624 0.131918,-0.111624 l 0.08118,-0.273985 0.08118,0.07103 0.172509,-0.233394 0.2942806,-0.17251 0.1319188,-0.375461 0.1217713,-0.03044 0.050738,-0.25369 0.071033,0.09133 c 0,0 0.2130996,-2.465867 0.2942804,-4.56642 0.060886,-1.877306 -1.1162363,-1.755535 -1.5627303,-1.643911 z"
               style="font-family:BlowBrush;-inkscape-font-specification:BlowBrush"
               id="path2340" />
          </g>
        </g>
      </g>
    </g>
  </g>
</svg>
