<?xml version="1.0" encoding="UTF-8" standalone="no"?>
<svg
   width="25"
   height="30"
   viewBox="0 0 6.6145837 7.9374998"
   version="1.1"
   id="svg8"
   inkscape:version="1.1.2 (b8e25be833, 2022-02-05)"
   sodipodi:docname="euclides_p.svg"
   xmlns:inkscape="http://www.inkscape.org/namespaces/inkscape"
   xmlns:sodipodi="http://sodipodi.sourceforge.net/DTD/sodipodi-0.dtd"
   xmlns="http://www.w3.org/2000/svg"
   xmlns:svg="http://www.w3.org/2000/svg"
   xmlns:rdf="http://www.w3.org/1999/02/22-rdf-syntax-ns#"
   xmlns:cc="http://creativecommons.org/ns#"
   xmlns:dc="http://purl.org/dc/elements/1.1/">
  <defs
     id="defs2" />
  <sodipodi:namedview
     id="base"
     pagecolor="#ffffff"
     bordercolor="#666666"
     borderopacity="1.0"
     inkscape:pageopacity="0.0"
     inkscape:pageshadow="2"
     inkscape:zoom="4"
     inkscape:cx="62.75"
     inkscape:cy="1.375"
     inkscape:document-units="cm"
     inkscape:current-layer="g36777"
     inkscape:document-rotation="0"
     showgrid="false"
     units="px"
     inkscape:pagecheckerboard="true"
     inkscape:showpageshadow="false"
     width="1000px"
     showborder="true"
     inkscape:window-width="1920"
     inkscape:window-height="1017"
     inkscape:window-x="-8"
     inkscape:window-y="-8"
     inkscape:window-maximized="1" />
  <metadata
     id="metadata5">
    <rdf:RDF>
      <cc:Work
         rdf:about="">
        <dc:format>image/svg+xml</dc:format>
        <dc:type
           rdf:resource="http://purl.org/dc/dcmitype/StillImage" />
      </cc:Work>
    </rdf:RDF>
  </metadata>
  <g
     inkscape:label="Layer 1"
     inkscape:groupmode="layer"
     id="layer1">
    <g
       id="g36777"
       transform="matrix(0.75177557,0,0,0.75177557,-0.99813918,0.65206261)"
       style="stroke-width:1.33018">
      <path
         id="path45860"
         style="font-weight:bold;font-size:7.05556px;line-height:1.25;font-family:Mulish;-inkscape-font-specification:'Mulish Bold';text-align:center;text-anchor:middle;display:inline;fill:#ffffff;fill-opacity:1;stroke-width:0.351944"
         d="m 6.5576659,-0.82499316 c -1.059471,0 -1.969142,0.21628661 -2.7300338,0.64970653 C 3.076371,0.24850141 2.4978436,0.85082598 2.0933194,1.6309806 1.6887951,2.4111351 1.4869986,3.3352966 1.4869986,4.4043978 c 0,1.0691027 0.2017949,1.9984456 0.6063208,2.7882322 0.4045242,0.7801542 0.9830516,1.3876619 1.7343127,1.8210827 0.7608918,0.4237881 1.6705628,0.6348911 2.7300338,0.6348911 0.712735,0 1.353343,-0.105554 1.921605,-0.317446 0.577893,-0.2118953 1.073607,-0.5109925 1.487763,-0.8962565 L 9.3607129,6.9619548 c -0.452684,0.3756284 -0.891498,0.6446897 -1.315284,0.8084281 -0.414157,0.1541065 -0.890198,0.2317344 -1.429566,0.2317344 -1.030575,0 -1.820204,-0.3135892 -2.369203,-0.9396403 C 3.8880029,6.6461801 3.6483391,6.115173 3.5281742,5.4688993 H 7.8073449 V 3.3547112 H 3.5260577 C 3.6454359,2.7048214 3.8856539,2.1737099 4.2466599,1.7611331 c 0.548999,-0.626051 1.338628,-0.93963982 2.369203,-0.93963982 0.539368,0 1.015409,0.081756 1.429566,0.24549002 0.423786,0.1541067 0.8626,0.4149197 1.315284,0.7809181 l 0.606321,-1.47400722 c -0.414156,-0.39489247 -0.90987,-0.69399279 -1.487763,-0.89625568 -0.568262,-0.2022614 -1.20887,-0.30263166 -1.921605,-0.30263166 z" />
    </g>
  </g>
</svg>
