<?xml version="1.0" encoding="UTF-8" standalone="no"?>
<svg
   width="180"
   height="30"
   viewBox="0 0 47.625003 7.9374998"
   version="1.1"
   id="svg8"
   inkscape:version="1.1.2 (b8e25be833, 2022-02-05)"
   sodipodi:docname="euclides.svg"
   xmlns:inkscape="http://www.inkscape.org/namespaces/inkscape"
   xmlns:sodipodi="http://sodipodi.sourceforge.net/DTD/sodipodi-0.dtd"
   xmlns="http://www.w3.org/2000/svg"
   xmlns:svg="http://www.w3.org/2000/svg"
   xmlns:rdf="http://www.w3.org/1999/02/22-rdf-syntax-ns#"
   xmlns:cc="http://creativecommons.org/ns#"
   xmlns:dc="http://purl.org/dc/elements/1.1/">
  <defs
     id="defs2" />
  <sodipodi:namedview
     id="base"
     pagecolor="#ffffff"
     bordercolor="#666666"
     borderopacity="1.0"
     inkscape:pageopacity="0.0"
     inkscape:pageshadow="2"
     inkscape:zoom="4"
     inkscape:cx="88.75"
     inkscape:cy="7.875"
     inkscape:document-units="cm"
     inkscape:current-layer="g36777"
     inkscape:document-rotation="0"
     showgrid="false"
     units="px"
     inkscape:pagecheckerboard="true"
     inkscape:showpageshadow="false"
     width="1000px"
     showborder="true"
     inkscape:window-width="1920"
     inkscape:window-height="1017"
     inkscape:window-x="-8"
     inkscape:window-y="-8"
     inkscape:window-maximized="1" />
  <metadata
     id="metadata5">
    <rdf:RDF>
      <cc:Work
         rdf:about="">
        <dc:format>image/svg+xml</dc:format>
        <dc:type
           rdf:resource="http://purl.org/dc/dcmitype/StillImage" />
      </cc:Work>
    </rdf:RDF>
  </metadata>
  <g
     inkscape:label="Layer 1"
     inkscape:groupmode="layer"
     id="layer1">
    <g
       id="g36777"
       transform="matrix(0.75177557,0,0,0.75177557,-0.99813918,0.65206261)"
       style="stroke-width:1.33018">
      <g
         id="g58486"
         transform="matrix(1.77696,0,0,1.77696,-0.36661488,-3.8158899)"
         style="display:inline;fill:#ffffff;stroke-width:0.748573">
        <path
           id="path58071"
           style="font-weight:bold;font-size:7.05556px;line-height:1.25;font-family:Mulish;-inkscape-font-specification:'Mulish Bold';text-align:center;text-anchor:middle;fill:#ffffff;stroke-width:0.19806"
           d="m 3.8566123,2.0727418 c -0.5174078,0 -0.9621759,0.1056264 -1.3337688,0.3172932 -0.3668891,0.2069631 -0.6489043,0.5011166 -0.84646,0.8821169 -0.1975557,0.381 -0.2966227,0.8323279 -0.2966227,1.3544392 0,0.5221115 0.099067,0.9759701 0.2966227,1.3616739 0.1975557,0.3810003 0.4795709,0.6776847 0.84646,0.8893516 0.3715929,0.206963 0.816361,0.3100586 1.3337688,0.3100586 0.3480742,0 0.6609252,-0.051548 0.938444,-0.1550294 C 5.0772786,6.9291644 5.3193676,6.7830948 5.521627,6.5949464 L 5.225521,5.8756104 C 5.0044468,6.0590551 4.7901459,6.1904553 4.583183,6.2704185 4.3809236,6.3456777 4.1479251,6.3835898 3.8845176,6.3835898 3.3812208,6.3835898 2.9955935,6.2304439 2.7274822,5.9247031 2.5523318,5.7214036 2.4358017,5.4620606 2.3771159,5.1464561 H 4.4663941 V 4.1139608 H 2.3755656 C 2.4338631,3.796554 2.55117,3.5372133 2.7274822,3.3357138 2.9955935,3.029973 3.3812208,2.8768271 3.8845176,2.8768271 c 0.2634075,0 0.496406,0.039926 0.6986654,0.1198893 0.2069629,0.075259 0.4212638,0.2026312 0.642338,0.381372 L 5.521627,2.6582357 C 5.3193676,2.4653838 5.0772786,2.3193142 4.7950563,2.2205363 4.5175375,2.1217585 4.2046865,2.0727418 3.8566123,2.0727418 Z" />
        <path
           d="m 8.4496797,7.187849 q -1.0653896,0 -1.5875011,-0.529167 Q 6.3471227,6.1224594 6.3471227,5.0782365 V 2.1431235 H 7.25729 v 2.9280574 q 0,0.6632227 0.2822224,1.0018896 0.289278,0.3386668 0.9101673,0.3386668 0.592667,0 0.8890005,-0.3386668 Q 9.6420693,5.7344036 9.6420693,5.0711809 V 2.1431235 h 0.8960557 v 2.935113 q 0,1.0442229 -0.529167,1.5804455 -0.522111,0.529167 -1.5592783,0.529167 z"
           style="font-weight:bold;font-size:7.05556px;line-height:1.25;font-family:Mulish;-inkscape-font-specification:'Mulish Bold';text-align:center;text-anchor:middle;fill:#ffffff;stroke-width:0.19806"
           id="path58073" />
        <path
           d="m 13.910681,7.187849 q -0.776111,0 -1.3335,-0.3104447 Q 12.026847,6.5599041 11.730513,5.9884037 11.43418,5.4098478 11.43418,4.6266806 q 0,-0.7831671 0.296333,-1.3546675 0.296334,-0.5715004 0.846668,-0.881945 0.557389,-0.3175002 1.3335,-0.3175002 0.522112,0 0.93839,0.1481667 0.423334,0.1481668 0.726723,0.4374448 L 15.27946,3.3778465 q -0.331611,-0.2681113 -0.642056,-0.3810002 -0.303389,-0.1199446 -0.6985,-0.1199446 -0.754945,0 -1.157112,0.4586114 -0.395112,0.4515559 -0.395112,1.2911675 0,0.8396117 0.395112,1.2982231 0.402167,0.4586114 1.157112,0.4586114 0.395111,0 0.6985,-0.112889 0.310445,-0.1199445 0.642056,-0.3951113 l 0.296334,0.7196671 Q 15.272405,6.8774043 14.849071,7.0326266 14.432793,7.187849 13.910681,7.187849 Z"
           style="font-weight:bold;font-size:7.05556px;line-height:1.25;font-family:Mulish;-inkscape-font-specification:'Mulish Bold';text-align:center;text-anchor:middle;fill:#ffffff;stroke-width:0.19806"
           id="path58075" />
        <path
           d="M 16.429512,7.1172934 V 2.1431235 h 0.910168 v 4.2051138 h 2.342445 v 0.7690561 z"
           style="font-weight:bold;font-size:7.05556px;line-height:1.25;font-family:Mulish;-inkscape-font-specification:'Mulish Bold';text-align:center;text-anchor:middle;fill:#ffffff;stroke-width:0.19806"
           id="path58077" />
        <path
           d="M 20.380623,7.1172934 V 2.1431235 h 0.910167 v 4.9741699 z"
           style="font-weight:bold;font-size:7.05556px;line-height:1.25;font-family:Mulish;-inkscape-font-specification:'Mulish Bold';text-align:center;text-anchor:middle;fill:#ffffff;stroke-width:0.19806"
           id="path58079" />
        <path
           d="M 22.384403,7.1172934 V 2.1431235 h 1.806224 q 0.853723,0 1.439334,0.2963335 0.592667,0.289278 0.896056,0.8466672 0.303389,0.5503337 0.303389,1.3405564 0,0.7831672 -0.303389,1.3405565 -0.303389,0.5573892 -0.896056,0.8537227 -0.585611,0.2963336 -1.439334,0.2963336 z m 0.910168,-0.754945 h 0.839611 q 0.903112,0 1.340557,-0.4303891 0.437445,-0.4303892 0.437445,-1.3052787 0,-0.881945 -0.437445,-1.3052786 -0.437445,-0.4303891 -1.340557,-0.4303891 h -0.839611 z"
           style="font-weight:bold;font-size:7.05556px;line-height:1.25;font-family:Mulish;-inkscape-font-specification:'Mulish Bold';text-align:center;text-anchor:middle;fill:#ffffff;stroke-width:0.19806"
           id="path58081" />
        <path
           id="path58083"
           style="font-weight:bold;font-size:7.05556px;line-height:1.25;font-family:Mulish;-inkscape-font-specification:'Mulish Bold';text-align:center;text-anchor:middle;fill:#ffffff;stroke-width:0.19806"
           d="m 30.075167,2.0727418 c -0.517406,0 -0.962176,0.1056264 -1.333767,0.3172932 -0.36689,0.2069631 -0.648904,0.5011166 -0.84646,0.8821169 -0.197557,0.381 -0.296625,0.8323279 -0.296625,1.3544392 0,0.5221115 0.09907,0.9759701 0.296625,1.3616739 0.197556,0.3810003 0.47957,0.6776847 0.84646,0.8893516 0.371591,0.206963 0.816361,0.3100586 1.333767,0.3100586 0.348075,0 0.660408,-0.051548 0.937927,-0.1550294 0.282223,-0.1034814 0.52483,-0.249551 0.727088,-0.4376994 L 31.44356,5.8756104 c -0.221075,0.1834447 -0.434858,0.3148449 -0.641821,0.3948081 -0.20226,0.075259 -0.435258,0.1131713 -0.698666,0.1131713 -0.503296,0 -0.888924,-0.1531459 -1.157036,-0.4588867 -0.175149,-0.2032995 -0.29168,-0.4626425 -0.350367,-0.778247 h 2.083594 V 4.1139608 h -2.085142 c 0.0583,-0.3174068 0.175604,-0.5767475 0.351915,-0.778247 0.268112,-0.3057408 0.65374,-0.4588867 1.157036,-0.4588867 0.263408,0 0.496406,0.039926 0.698666,0.1198893 0.206963,0.075259 0.420746,0.2026312 0.641821,0.381372 L 31.740182,2.6582357 C 31.537924,2.4653838 31.295317,2.3193142 31.013094,2.2205363 30.735575,2.1217585 30.423242,2.0727418 30.075167,2.0727418 Z" />
        <path
           d="m 34.223629,7.187849 q -0.599723,0 -1.107723,-0.1481668 Q 32.614961,6.8844599 32.255128,6.6163486 L 32.53735,5.903737 q 0.239889,0.1693335 0.500945,0.289278 0.261055,0.1128889 0.557389,0.176389 0.296334,0.056444 0.627945,0.056444 0.557389,0 0.804334,-0.1834446 0.246944,-0.1834446 0.246944,-0.4797781 0,-0.2610557 -0.169333,-0.3951113 Q 34.93624,5.2264032 34.498796,5.134681 L 33.701517,4.9724031 Q 33.017128,4.8312919 32.678461,4.4996806 32.339794,4.1680692 32.339794,3.61068 q 0,-0.465667 0.246945,-0.8113894 0.246944,-0.3457225 0.691445,-0.5362226 0.4445,-0.1905001 1.037167,-0.1905001 0.529167,0 0.980723,0.1552223 0.451556,0.1481668 0.754945,0.4303892 L 35.768796,3.3355131 Q 35.465407,3.081513 35.105574,2.9615685 34.74574,2.8345684 34.30124,2.8345684 q -0.500945,0 -0.783167,0.1975557 -0.275167,0.1905001 -0.275167,0.529167 0,0.2610557 0.169333,0.416278 0.176389,0.1552223 0.592667,0.2398891 l 0.790223,0.1552223 q 0.705556,0.1411112 1.044223,0.4656669 0.338667,0.3175002 0.338667,0.8607784 0,0.4445003 -0.239889,0.7831671 -0.239889,0.3316114 -0.677334,0.5221115 -0.437445,0.1834446 -1.037167,0.1834446 z"
           style="font-weight:bold;font-size:7.05556px;line-height:1.25;font-family:Mulish;-inkscape-font-specification:'Mulish Bold';text-align:center;text-anchor:middle;fill:#ffffff;stroke-width:0.19806"
           id="path58085" />
        <g
           aria-label="-"
           id="text37940"
           style="font-size:8.46667px;line-height:1.25;-inkscape-font-specification:'sans-serif, Normal';text-align:center;text-anchor:middle;fill:#ffffff;stroke-width:0.19806" />
        <g
           aria-label="-"
           id="text37940-3"
           style="font-size:8.46667px;line-height:1.25;-inkscape-font-specification:'sans-serif, Normal';text-align:center;text-anchor:middle;display:inline;fill:#ffffff;stroke-width:0.19806" />
      </g>
    </g>
  </g>
</svg>
