<?xml version="1.0" encoding="UTF-8" standalone="no"?>
<svg
   enable-background="new 0 0 2000 2000"
   version="1.1"
   viewBox="0 0 660 405"
   id="svg400"
   sodipodi:docname="laptop.svg"
   width="660"
   height="405"
   inkscape:version="1.1.2 (b8e25be833, 2022-02-05)"
   inkscape:export-filename="C:\projetos\criptografia\img\laptop.png"
   inkscape:export-xdpi="96"
   inkscape:export-ydpi="96"
   xmlns:inkscape="http://www.inkscape.org/namespaces/inkscape"
   xmlns:sodipodi="http://sodipodi.sourceforge.net/DTD/sodipodi-0.dtd"
   xmlns="http://www.w3.org/2000/svg"
   xmlns:svg="http://www.w3.org/2000/svg">
  <defs
     id="defs404" />
  <sodipodi:namedview
     id="namedview402"
     pagecolor="#ffffff"
     bordercolor="#666666"
     borderopacity="1.0"
     inkscape:pageshadow="2"
     inkscape:pageopacity="0.0"
     inkscape:pagecheckerboard="true"
     showgrid="false"
     inkscape:zoom="0.50840978"
     inkscape:cx="576.30678"
     inkscape:cy="263.56692"
     inkscape:window-width="1920"
     inkscape:window-height="1017"
     inkscape:window-x="-8"
     inkscape:window-y="-8"
     inkscape:window-maximized="1"
     inkscape:current-layer="svg400" />
  <g
     id="g1222"
     transform="translate(86.443084,140.6401)">
    <path
       d="m 497.81994,218.79389 h -59.60691 c -16.97478,0 -30.73672,-10.02964 -30.73672,-22.41914 0,-12.38796 13.76194,-22.41883 30.73672,-22.41883 h 20.4889 c 16.97307,0 30.73504,-10.02963 30.73504,-22.41913 0,-12.38953 -13.76197,-22.41917 -30.73504,-22.41917 H 335.76351 c -16.97435,0 -30.7359,-10.0296 -30.7359,-22.41913 0,-12.389204 13.76155,-22.419152 30.7359,-22.419152 h 206.76394 c 16.97263,0 30.73419,-10.029606 30.73419,-22.41913 0,-12.38951 -13.76156,-22.419118 -30.73419,-22.419118 H 395.3704 c -16.97308,0 -30.73333,-10.031182 -30.73333,-22.41913 0,-12.3895355 13.76025,-22.4191676 30.73333,-22.4191676 h 55.88225 c 16.97478,0 30.73462,-10.0299474 30.73462,-22.4191344 0,-12.389527 -13.75984,-22.419137 -30.73462,-22.419137 H 328.31423 c -16.97263,0 -30.7346,-10.02992 -30.7346,-22.419447 0,-12.389526 13.76197,-22.419131 30.7346,-22.419131 h 18.62658 c 16.97435,0 30.73588,-10.029643 30.73588,-22.419173 0,-12.38826 -13.76153,-22.41913 -30.73588,-22.41913 H 160.6666 c -16.97308,0 -30.73462,10.03087 -30.73462,22.41913 0,12.38953 13.76154,22.419173 30.73462,22.419173 h 11.17688 c 16.97477,0 30.73503,10.029914 30.73503,22.419131 0,12.389194 -13.76026,22.419447 -30.73503,22.419447 h -20.49102 c -16.97308,0 -30.73462,10.02961 -30.73462,22.419137 0,12.389187 13.76154,22.4191344 30.73462,22.4191344 h -3.72463 c 16.97307,0 30.7346,10.0299473 30.7346,22.4191676 0,12.388263 -13.76153,22.41913 -30.7346,22.41913 H -55.411485 c -16.974778,0 -30.736323,10.029608 -30.736323,22.419118 0,12.389524 13.761545,22.41913 30.736323,22.41913 h 52.1533719 c 16.9730661,0 30.7345871,10.029948 30.7345871,22.419152 0,12.38953 -13.761521,22.41913 -30.7345871,22.41913 h -7.4505599 c -16.974779,0 -30.736302,10.02964 -30.736302,22.41917 0,12.3895 13.761523,22.41913 30.736302,22.41913 H 128.99487 c 16.97307,0 30.73459,10.03087 30.73459,22.41883 0,12.3895 -13.76152,22.41914 -30.73459,22.41914 H 58.209795 c -16.974753,0 -30.736297,10.02994 -30.736297,22.41945 0,12.38918 13.761544,22.41882 30.736297,22.41882 H 497.79308 c 16.97436,0 30.73631,-10.02964 30.73631,-22.41882 4.3e-4,-12.38951 -13.76152,-22.41945 -30.73588,-22.41945 z"
       fill="#a7cfe8"
       id="path2"
       style="stroke-width:1" />
    <polygon
       points="323.53,1089.8 450.39,936.79 438.75,926.19 311.52,1080.4 "
       fill="#9db6c9"
       id="polygon4"
       transform="matrix(0.42615927,0,0,0.42615927,-186.1123,-381.81041)"
       style="stroke-width:2.34654" />
    <path
       d="m -48.241253,84.322588 c -0.3665,0 -0.734691,-0.118114 -1.046641,-0.360103 l -5.119453,-3.981184 c -0.363097,-0.283399 -0.596635,-0.70145 -0.648186,-1.160003 -0.04977,-0.458125 0.08692,-0.916678 0.38012,-1.273379 L -0.45090519,11.821376 c 0.29704426,-0.360091 0.73002461,-0.58171 1.19496011,-0.614951 0.46493548,-0.03328 0.92475058,0.126686 1.26994068,0.439796 l 4.9592292,4.516442 c 0.6750201,0.61282 0.7461925,1.64968 0.1650108,2.351559 L -46.924333,83.703805 c -0.336236,0.404413 -0.822911,0.616224 -1.314681,0.616224 z m -2.682676,-5.956012 2.426564,1.886627 L 3.4727577,17.590737 1.0432169,15.377676 -50.922644,78.368291 Z"
       fill="#305d8a"
       id="path6"
       style="stroke-width:1" />
    <polygon
       points="405.62,1280.3 327.04,1126.8 314.27,1133.8 389.6,1280.3 "
       fill="#9db6c9"
       id="polygon8"
       transform="matrix(0.42615927,0,0,0.42615927,-186.1123,-381.81041)"
       style="stroke-width:2.34654" />
    <path
       d="m -13.253578,165.50594 h -6.82578 c -0.639686,0 -1.224795,-0.35715 -1.51841,-0.92692 l -32.10301,-62.42807 c -0.42148,-0.82163 -0.113337,-1.83161 0.69676,-2.276526 l 5.441214,-2.986528 c 0.406551,-0.220017 0.87832,-0.269759 1.32323,-0.134779 0.43979,0.134779 0.806291,0.4432 1.01809,0.853159 l 33.487601,65.415444 c 0.270185,0.52973 0.246731,1.16172 -0.06357,1.668 -0.309401,0.50669 -0.861271,0.81693 -1.456192,0.81693 z m -5.784259,-3.41313 h 2.992909 l -31.41475,-61.36693 -2.44616,1.34113 30.868001,60.0288 z"
       fill="#305d8a"
       id="path10"
       style="stroke-width:1" />
    <path
       d="m 1.470221,-37.678298 c 3.6628357,3.666263 3.6628357,9.60863 0,13.273156 -3.6666692,3.66455 -9.6090343,3.66455 -13.274846,0 -3.663265,-3.664526 -3.663265,-9.606893 0,-13.273156 3.6658117,-3.664526 9.6081768,-3.664526 13.274846,0 z"
       fill="#9db6c9"
       id="path12"
       style="stroke-width:1" />
    <path
       d="m -5.1693337,-19.950064 c -2.9630986,0 -5.7493053,-1.153195 -7.8443233,-3.248189 -4.32295,-4.324236 -4.32295,-11.360127 0,-15.686505 2.095018,-2.094995 4.8812247,-3.248166 7.8443233,-3.248166 2.9630759,0 5.74930678,1.153171 7.8438958,3.248166 4.3229498,4.32595 4.3229498,11.36184 0,15.686505 -2.09501761,2.094994 -4.8812485,3.248189 -7.8438958,3.248189 z m 0,-18.769327 c -2.0515385,0 -3.9794742,0.798196 -5.4314033,2.247982 -2.99122,2.994624 -2.99122,7.867324 0,10.860235 1.4515005,1.44981 3.3798648,2.248004 5.4314033,2.248004 2.0511111,0 3.9794754,-0.798623 5.43097548,-2.248004 2.99162502,-2.992911 2.99162502,-7.865611 0,-10.860235 -1.45150008,-1.449786 -3.37986438,-2.247982 -5.43097548,-2.247982 z"
       fill="#305d8a"
       id="path14"
       style="stroke-width:1" />
    <path
       d="m 53.551138,4.3580514 c 6.439284,6.4409736 6.439284,16.8831616 0,23.3236936 -6.43926,6.437571 -16.883132,6.439285 -23.323697,0 -6.439256,-6.440961 -6.437541,-16.884837 0,-23.3236936 6.440994,-6.4392595 16.884437,-6.4392595 23.323697,0 z"
       fill="#ffffff"
       id="path16"
       style="stroke-width:1" />
    <path
       d="m 41.891414,34.214778 c -4.86117,0 -9.432161,-1.893006 -12.86829,-5.329111 -7.094275,-7.095998 -7.094275,-18.64106 0,-25.7370456 3.437821,-3.43613071 8.00712,-5.3291111 12.86829,-5.3291111 4.862919,0 9.432191,1.89298039 12.868322,5.3291111 7.094283,7.0959856 7.094283,18.6410476 0,25.7370456 -3.436131,3.436105 -8.007117,5.329111 -12.868322,5.329111 z m 0,-32.982596 c -3.949634,0 -7.662329,1.5380071 -10.45537,4.3293496 -5.762521,5.7642434 -5.762521,15.1465404 0,20.9107834 2.793041,2.791343 6.505736,4.329778 10.45537,4.329778 3.94967,0 7.662367,-1.538007 10.455411,-4.329778 5.762517,-5.764243 5.762517,-15.14654 0,-20.9107834 C 49.55547,2.7701891 45.842773,1.232182 41.891414,1.232182 Z"
       fill="#305d8a"
       id="path18"
       style="stroke-width:1" />
    <rect
       transform="rotate(-45)"
       x="1.2410883"
       y="-28.17053"
       width="34.129063"
       height="11.943851"
       fill="#9db6c9"
       id="rect20"
       style="stroke-width:0.999991" />
    <path
       d="m -10.598594,-10.629949 c -0.43641,0 -0.8732,-0.166684 -1.20646,-0.4999 l -8.445626,-8.445619 c -0.666519,-0.66652 -0.666519,-1.7464 0,-2.412921 L 3.8831413,-46.12221 c 0.3200444,-0.319615 0.7534546,-0.499889 1.2064602,-0.499889 0.4534342,0 0.8864158,0.18025 1.2064602,0.499889 l 8.4456253,8.447317 c 0.666496,0.66652 0.666496,1.746424 0,2.41292 l -24.1338444,24.132124 c -0.3332362,0.333267 -0.7696226,0.4999 -1.2064366,0.4999 z m -6.032729,-10.151979 6.032729,6.032701 21.720901,-21.719206 -6.0327055,-6.034396 z"
       fill="#305d8a"
       id="path22"
       style="stroke-width:1" />
    <polygon
       points="392.03,869.81 471.31,790.53 598.73,895.3 496.79,997.23 "
       fill="#9db6c9"
       id="polygon24"
       transform="matrix(0.42615927,0,0,0.42615927,-186.1123,-381.81041)"
       style="stroke-width:2.34654" />
    <path
       d="m 25.599352,44.348847 h -0.0831 c -0.479841,0 -0.928156,0.01424 -1.234581,-0.3597 l -44.644428,-54.169089 c -0.558704,-0.678029 -0.510128,-1.601489 0.111672,-2.222844 l 33.785903,-33.754378 c 0.623041,-0.620064 1.616416,-0.651591 2.289746,-0.09501 L 70.12579,-1.5991959 c 0.3716,0.306404 0.598324,0.75815023 0.621758,1.23798175 0.02382,0.48327284 -0.158578,0.95333503 -0.498173,1.29339584 L 26.810955,44.110639 c -0.320044,0.321758 -0.755145,0.238233 -1.206889,0.238233 z M -16.745092,-11.01776 25.722954,40.632746 66.502983,-0.1472848 14.85248,-42.615336 -16.743402,-11.019474 Z"
       fill="#305d8a"
       id="path26"
       style="stroke-width:1" />
    <g
       opacity="0.2"
       id="g30"
       transform="matrix(0.42615927,0,0,0.42615927,-186.1123,-381.81041)"
       style="stroke-width:2.34654">
      <polygon
         points="592.6,895.77 471.58,795.94 434.5,833 544.93,943.43 "
         fill="#9db6c9"
         id="polygon28"
         style="stroke-width:13.111" />
    </g>
    <g
       opacity="0.2"
       id="g34"
       transform="matrix(0.42615927,0,0,0.42615927,-186.1123,-381.81041)"
       style="stroke-width:2.34654">
      <rect
         transform="matrix(0.7071,-0.7071,0.7071,0.7071,-445.5,548.01)"
         x="420.73001"
         y="807.77002"
         width="36.040001"
         height="8.0080004"
         fill="#9db6c9"
         id="rect32"
         style="stroke-width:13.111" />
    </g>
    <g
       opacity="0.2"
       id="g38"
       transform="matrix(0.42615927,0,0,0.42615927,-186.1123,-381.81041)"
       style="stroke-width:2.34654">
      <path
         d="m 427.9,805.64 c 0,0 -11.571,-3.136 -19.591,8.932 0,0 6.14,-1.146 9.209,1.45 z"
         fill="#9db6c9"
         id="path36"
         style="stroke-width:13.111" />
    </g>
    <g
       opacity="0.2"
       id="g42"
       transform="matrix(0.42615927,0,0,0.42615927,-186.1123,-381.81041)"
       style="stroke-width:2.34654">
      <polyline
         points="530.41 968.8 536.44 968.92 567.58 937.77 570.41 934.94 570.17 929.52 530.77 968.92"
         fill="#9db6c9"
         id="polyline40"
         style="stroke-width:13.111" />
    </g>
    <path
       d="m -40.186844,89.223399 c 0,6.699666 -5.430976,12.128951 -12.1302,12.128951 -6.699225,0 -12.130198,-5.429285 -12.130198,-12.128951 0,-6.700913 5.430973,-12.13189 12.130198,-12.13189 6.699224,0 12.1302,5.430977 12.1302,12.13189 z"
       fill="#9db6c9"
       id="path44"
       style="stroke-width:1" />
    <path
       d="m -52.319592,103.07361 c -7.629095,0 -13.836548,-6.206172 -13.836548,-13.835273 0,-7.630386 6.207453,-13.838245 13.836548,-13.838245 7.629096,0 13.836526,6.20743 13.836526,13.838245 0,7.629101 -6.20743,13.835273 -13.836526,13.835273 z m 0,-24.260418 c -5.747615,0 -10.423421,4.675814 -10.423421,10.425145 0,5.746331 4.676235,10.422145 10.423421,10.422145 5.747187,0 10.423851,-4.675814 10.423851,-10.422145 0,-5.749759 -4.676236,-10.425145 -10.423851,-10.425145 z"
       fill="#305d8a"
       id="path46"
       style="stroke-width:1" />
    <g
       opacity="0.2"
       id="g50"
       transform="matrix(0.42615927,0,0,0.42615927,-186.1123,-381.81041)"
       style="stroke-width:2.34654">
      <path
         d="m 313.52,1080.9 v 48.919 c 12.013,0 24.459,-10.949 24.459,-24.456 0.001,-13.514 -12.446,-24.463 -24.459,-24.463 z"
         fill="#9db6c9"
         id="path48"
         style="stroke-width:13.111" />
    </g>
    <path
       d="m -46.741179,89.223399 c 0,3.078158 -2.496425,5.574605 -5.575865,5.574605 -3.079417,0 -5.575865,-2.496447 -5.575865,-5.574605 0,-3.080691 2.496448,-5.577554 5.575865,-5.577554 3.07944,0 5.575865,2.496435 5.575865,5.577554 z"
       fill="#9db6c9"
       id="path52"
       style="stroke-width:1" />
    <path
       d="m -52.319592,96.51075 c -4.016121,0 -7.282216,-3.266107 -7.282216,-7.280934 0,-4.016127 3.266524,-7.283935 7.282216,-7.283935 4.01612,0 7.28262,3.267808 7.28262,7.283935 0,4.014827 -3.2665,7.280934 -7.28262,7.280934 z m 0,-11.151743 c -2.132926,0 -3.869539,1.736167 -3.869539,3.870809 0,2.133343 1.736613,3.86825 3.869539,3.86825 2.132925,0 3.869516,-1.734907 3.869516,-3.86825 0,-2.134642 -1.736591,-3.870809 -3.869516,-3.870809 z"
       fill="#305d8a"
       id="path54"
       style="stroke-width:1" />
    <path
       d="m 20.229762,199.64127 c 0.413359,-2.10778 0.643066,-4.2829 0.643066,-6.51212 0,-18.55114 -15.0382971,-33.58946 -33.589442,-33.58946 -18.551145,0 -33.590726,15.03832 -33.590726,33.58946 0,2.22922 0.228348,4.40434 0.643065,6.51212 h 65.892751 z"
       fill="#9db6c9"
       id="path56"
       style="stroke-width:1" />
    <path
       d="m 20.229762,201.34594 h -65.892751 c -0.814815,0 -1.516265,-0.57705 -1.674799,-1.37651 -0.448317,-2.27654 -0.675046,-4.57908 -0.675046,-6.84242 0,-19.46311 15.834801,-35.29578 35.297506,-35.29578 19.4626809,0 35.295767,15.83267 35.295767,35.29578 0,2.25439 -0.226681,4.55563 -0.674591,6.84071 -0.156916,0.79948 -0.858295,1.37822 -1.675229,1.37822 z m -64.460848,-3.41314 h 63.024682 c 0.246754,-1.61173 0.371619,-3.22305 0.371619,-4.80579 0,-17.57948 -14.3031997,-31.88268 -31.883115,-31.88268 -17.5812,0 -31.884376,14.3032 -31.884376,31.88268 0,1.58787 0.12477,3.19919 0.369904,4.80579 z"
       fill="#305d8a"
       id="path58"
       style="stroke-width:1" />
    <g
       opacity="0.2"
       id="g62"
       transform="matrix(0.42615927,0,0,0.42615927,-186.1123,-381.81041)"
       style="stroke-width:2.34654">
      <path
         d="m 406.88,1270.3 c -13.292,0 -25.793,3.324 -36.781,9.131 4.161,-0.677 8.404,-1.123 12.756,-1.123 43.531,0 78.818,35.288 78.818,78.819 0,2.456 -0.14,4.876 -0.367,7.273 h 22.884 c 0.97,-4.946 1.509,-10.05 1.509,-15.281 0,-43.531 -35.288,-78.819 -78.819,-78.819 z"
         fill="#9db6c9"
         id="path60"
         style="stroke-width:13.111" />
    </g>
    <g
       opacity="0.2"
       id="g66"
       transform="matrix(0.42615927,0,0,0.42615927,-186.1123,-381.81041)"
       style="stroke-width:2.34654">
      <polygon
         points="325.75,1075.1 329.21,1076.9 443.49,938.61 440.99,935.27 "
         fill="#9db6c9"
         id="polygon64"
         style="stroke-width:13.111" />
    </g>
    <g
       opacity="0.2"
       id="g70"
       transform="matrix(0.42615927,0,0,0.42615927,-186.1123,-381.81041)"
       style="stroke-width:2.34654">
      <polygon
         points="323.7,1136.5 391.44,1268.3 395.11,1268.3 326.87,1135.1 "
         fill="#9db6c9"
         id="polygon68"
         style="stroke-width:13.111" />
    </g>
    <path
       d="m 489.22229,19.985319 c -3.01935,5.967508 -9.68533,8.672325 -14.88957,6.037393 -5.20044,-2.6311 -6.97199,-9.60563 -3.95093,-15.573139 3.01977,-5.969197 9.68618,-8.6723256 14.88829,-6.0390824 5.20383,2.6332181 6.97241,9.6052024 3.95221,15.5748284 z"
       fill="#afddb5"
       id="path72"
       style="stroke-width:1" />
    <path
       d="m 478.56831,28.734362 c -1.77667,0 -3.46978,-0.399736 -5.03465,-1.19153 -2.96095,-1.50009 -5.07044,-4.211323 -5.94024,-7.638908 -0.84848,-3.341525 -0.40867,-6.974089 1.23758,-10.2286864 2.4534,-4.8475526 7.22254,-7.9823846 12.15065,-7.9823846 1.77624,0 3.46978,0.4014626 5.03124,1.1915553 6.03399,3.052984 8.1456,11.0686347 4.70564,17.8675817 -2.45466,4.84967 -7.22255,7.982372 -12.15022,7.982372 z m 2.41291,-23.6288247 c -3.65262,0 -7.22595,2.3996996 -9.10405,6.1107077 -1.27463,2.518167 -1.62153,5.306106 -0.97632,7.847719 0.62347,2.456387 2.10609,4.386037 4.17465,5.432666 1.0816,0.548469 2.2565,0.82506 3.49281,0.82506 3.65262,0 7.22554,-2.39801 9.10361,-6.108993 2.59148,-5.121169 1.15489,-11.0788701 -3.20004,-13.2816831 -1.08074,-0.5471832 -2.25564,-0.8254766 -3.49066,-0.8254766 z"
       fill="#305d8a"
       id="path74"
       style="stroke-width:1" />
    <g
       opacity="0.38"
       id="g78"
       transform="matrix(0.42615927,0,0,0.42615927,-186.1123,-381.81041)"
       style="stroke-width:2.34654">
      <path
         d="m 1575.4,906.28 c -0.499,-0.254 -1.016,-0.454 -1.524,-0.665 3.223,7.418 3.074,16.732 -1.212,25.199 -6.796,13.429 -21.448,19.783 -33.411,14.833 2.111,4.856 5.655,8.908 10.483,11.348 12.213,6.183 27.854,-0.164 34.939,-14.167 7.088,-14.009 2.938,-30.369 -9.275,-36.548 z"
         fill="#9db6c9"
         id="path76"
         style="stroke-width:13.111" />
    </g>
    <path
       d="m 479.88938,25.099227 c 6.90891,13.164905 3.24948,28.695022 -8.17243,34.688939 -11.42576,5.993942 -26.28379,0.179768 -33.19098,-12.985062 -6.90934,-13.163658 -3.2516,-28.69332 8.17244,-34.689379 11.42363,-5.9939173 26.28209,-0.17929 33.19097,12.985502 z"
       fill="#afddb5"
       id="path80"
       style="stroke-width:1" />
    <path
       d="m 462.07593,63.866929 c -10.01686,0 -19.83941,-6.383014 -25.02192,-16.260093 -3.53288,-6.730335 -4.57611,-14.264831 -2.93796,-21.217201 1.65818,-7.039285 5.85884,-12.643298 11.82849,-15.776403 3.23284,-1.696548 6.7559,-2.5565261 10.47157,-2.5565261 10.01731,0 19.83985,6.3825851 25.02408,16.2596761 3.53115,6.730751 4.5761,14.266961 2.93794,21.217604 -1.65989,7.040584 -5.85926,12.643715 -11.82846,15.776846 -3.23285,1.696119 -6.75718,2.556097 -10.47374,2.556097 z m -5.65939,-52.396266 c -3.1574,0 -6.14733,0.729574 -8.88541,2.166169 -5.0811,2.666484 -8.66596,7.474392 -10.094,13.536933 -1.4481,6.151185 -0.51182,12.845291 2.63963,18.847755 4.59953,8.76736 13.23521,14.433166 21.99874,14.433166 3.15785,0 6.14951,-0.729599 8.88714,-2.166169 5.07941,-2.66477 8.66426,-7.472703 10.09231,-13.535245 1.44978,-6.15247 0.51352,-12.847005 -2.63792,-18.849015 -4.60083,-8.767384 -13.23651,-14.433594 -22.00049,-14.433594 z"
       fill="#305d8a"
       id="path82"
       style="stroke-width:1" />
    <g
       opacity="0.38"
       id="g86"
       transform="matrix(0.42615927,0,0,0.42615927,-186.1123,-381.81041)"
       style="stroke-width:2.34654">
      <path
         d="m 1562.8,954.83 c -16.212,-30.893 -51.078,-44.536 -77.884,-30.47 -1.014,0.532 -1.943,1.153 -2.906,1.748 22.748,1.999 44.153,19.529 52.447,45.564 8.725,27.389 0.188,55.517 -19.208,69.727 9.698,1.057 19.478,-0.5 28.374,-5.169 26.802,-14.066 35.389,-50.508 19.177,-81.4 z"
         fill="#9db6c9"
         id="path84"
         style="stroke-width:13.111" />
    </g>
    <ellipse
       transform="rotate(18.583515)"
       cx="446.7074"
       cy="-51.630684"
       rx="14.505366"
       ry="9.8123035"
       fill="#afddb5"
       id="ellipse88"
       style="stroke-width:1.00004" />
    <path
       d="m 443.11186,105.50269 c -2.30936,0 -4.65792,-0.39716 -6.97879,-1.17705 -8.61778,-2.89788 -13.75472,-9.962327 -11.69722,-16.084518 1.43702,-4.274389 6.05785,-6.929352 12.05734,-6.929352 2.30934,0 4.6579,0.396761 6.97919,1.176618 8.61738,2.898313 13.75428,9.962318 11.69679,16.084976 -1.437,4.273946 -6.05784,6.929326 -12.05731,6.929326 z m -6.6191,-20.77782 c -4.41969,0 -7.88097,1.806078 -8.82065,4.602941 -1.40164,4.165704 2.97117,9.551957 9.54681,11.762029 1.97142,0.66351 3.95264,0.99975 5.89252,0.99975 4.41969,0 7.88096,-1.80604 8.82064,-4.602512 1.40164,-4.166146 -2.97163,-9.552373 -9.54681,-11.762421 -1.97099,-0.663117 -3.95265,-0.999787 -5.89251,-0.999787 z"
       fill="#305d8a"
       id="path90"
       style="stroke-width:1" />
    <g
       opacity="0.38"
       id="g94"
       transform="matrix(0.42615927,0,0,0.42615927,-186.1123,-381.81041)"
       style="stroke-width:2.34654">
      <path
         d="m 1476.1,1093.3 c -17.816,-5.99 -35.546,-1.075 -39.597,10.977 -0.544,1.619 -0.794,3.289 -0.81,4.975 7.637,-3.188 17.992,-3.434 28.393,0.066 15.424,5.186 25.838,16.842 25.735,27.697 5.443,-2.272 9.519,-6.029 11.203,-11.043 4.052,-12.052 -7.105,-26.682 -24.924,-32.672 z"
         fill="#9db6c9"
         id="path92"
         style="stroke-width:13.111" />
    </g>
    <path
       d="m 531.79561,50.741239 c 3.47277,5.267748 -0.0238,13.703568 -7.81235,18.841351 -7.78723,5.137771 -16.91983,5.029527 -20.39387,-0.238661 -3.47277,-5.267319 0.0238,-13.704412 7.81066,-18.840922 7.79061,-5.137759 16.91937,-5.031229 20.39556,0.238232 z"
       fill="#afddb5"
       id="path96"
       style="stroke-width:1" />
    <path
       d="m 512.36273,75.074931 c -4.53306,0 -8.15072,-1.701666 -10.18904,-4.789176 -3.98629,-6.04763 -0.26465,-15.559941 8.29562,-21.205692 3.97649,-2.621293 8.44095,-4.06641 12.57212,-4.06641 4.53306,0 8.15072,1.701653 10.18863,4.789164 3.98628,6.046356 0.26334,15.558239 -8.29776,21.205704 -3.97435,2.621722 -8.4388,4.06641 -12.56957,4.06641 z m 10.67828,-26.648178 c -3.46978,0 -7.26772,1.2431 -10.69235,3.503042 -6.87224,4.531341 -10.22696,12.07693 -7.32524,16.476177 1.38459,2.100116 3.99097,3.256287 7.33931,3.256287 3.47106,0 7.26729,-1.244826 10.6902,-3.503041 6.87266,-4.533068 10.22699,-12.078632 7.32739,-16.476178 -1.38502,-2.100115 -3.99141,-3.256287 -7.33931,-3.256287 z"
       fill="#305d8a"
       id="path98"
       style="stroke-width:1" />
    <g
       opacity="0.38"
       id="g102"
       transform="matrix(0.42615927,0,0,0.42615927,-186.1123,-381.81041)"
       style="stroke-width:2.34654">
      <path
         d="m 1684.6,1015 c -1.857,-2.815 -4.427,-4.97 -7.469,-6.526 4.356,13.93 -8.481,30.725 -28.983,37.717 -11.982,4.087 -23.933,3.902 -32.817,0.324 -0.21,4.419 0.743,8.587 3.082,12.138 8.152,12.361 29.582,12.615 47.855,0.56 18.277,-12.057 26.481,-31.852 18.332,-44.213 z"
         fill="#9db6c9"
         id="path100"
         style="stroke-width:13.111" />
    </g>
    <ellipse
       cx="479.93201"
       cy="89.138153"
       rx="37.542072"
       ry="45.64592"
       fill="#afddb5"
       id="ellipse104"
       style="stroke-width:1" />
    <path
       d="m 479.93202,136.48449 c -21.6425,0 -39.24885,-21.24278 -39.24885,-47.354826 0,-26.112074 17.60592,-47.354827 39.24885,-47.354827 21.64291,0 39.24883,21.242349 39.24883,47.354827 0,26.112476 -17.60635,47.354826 -39.24883,47.354826 z m 0,-91.296111 c -19.75931,0 -35.83573,19.712838 -35.83573,43.941285 0,24.228856 16.07642,43.941296 35.83573,43.941296 19.75929,0 35.83573,-19.71244 35.83573,-43.941296 -4.3e-4,-24.228447 -16.07644,-43.941285 -35.83573,-43.941285 z"
       fill="#305d8a"
       id="path106"
       style="stroke-width:1" />
    <g
       opacity="0.38"
       id="g110"
       transform="matrix(0.42615927,0,0,0.42615927,-186.1123,-381.81041)"
       style="stroke-width:2.34654">
      <path
         d="m 1562.9,998 c -6.179,0 -12.2,0.782 -18.019,2.252 40.011,10.113 70.074,53.213 70.074,104.86 0,51.647 -30.063,94.75 -70.074,104.86 5.818,1.471 11.84,2.252 18.019,2.252 48.654,0 88.094,-47.957 88.094,-107.11 0,-59.153 -39.44,-107.11 -88.094,-107.11 z"
         fill="#9db6c9"
         id="path108"
         style="stroke-width:13.111" />
    </g>
    <path
       d="m 524.29521,189.96747 c 0,5.34276 -4.33279,9.6738 -9.67554,9.6738 h -67.67834 c -5.34234,0 -9.67552,-4.33104 -9.67552,-9.6738 l -8.53214,-62.56443 c 0,-5.34235 4.3332,-9.6734 9.67552,-9.6734 h 84.74177 c 5.34275,0 9.67552,4.33105 9.67552,9.6734 l -8.53256,62.56443 z"
       fill="#e4c6aa"
       id="path112"
       style="stroke-width:1" />
    <path
       d="m 514.62138,201.34594 h -67.67834 c -6.23601,0 -11.3171,-5.03936 -11.38187,-11.26043 l -8.51723,-62.45363 c -0.0101,-0.075 -0.0142,-0.1531 -0.0142,-0.23025 0,-6.27605 5.10582,-11.38015 11.38185,-11.38015 h 84.74172 c 6.27606,0 11.38187,5.10453 11.38187,11.38015 0,0.0771 -0.005,0.15525 -0.0142,0.23025 l -8.5168,62.45363 c -0.0657,6.22066 -5.14672,11.26043 -11.38273,11.26043 z m -84.17924,-74.05372 8.51723,62.44086 c 0.0101,0.075 0.0143,0.1531 0.0143,0.22978 0,4.39326 3.57461,7.96747 7.96877,7.96747 h 67.67834 c 4.39497,0 7.96916,-3.57462 7.96916,-7.96747 0,-0.0767 0.005,-0.15478 0.0142,-0.22978 l 8.51723,-62.44086 c -0.06,-4.34297 -3.61171,-7.85751 -7.96919,-7.85751 h -84.7417 c -4.35747,-4.3e-4 -7.90865,3.51454 -7.96833,7.85751 z"
       fill="#305d8a"
       id="path114"
       style="stroke-width:1" />
    <g
       opacity="0.38"
       id="g118"
       transform="matrix(0.42615927,0,0,0.42615927,-186.1123,-381.81041)"
       style="stroke-width:2.34654">
      <path
         d="m 1664.3,1172.2 h -20.021 c 12.537,0 22.704,10.163 22.704,22.699 l -20.021,146.81 c 0,12.537 -10.167,22.7 -22.704,22.7 h 20.021 c 12.537,0 22.704,-10.163 22.704,-22.7 l 20.021,-146.81 c 0,-12.536 -10.167,-22.699 -22.704,-22.699 z"
         fill="#aa9e80"
         id="path116"
         style="stroke-width:13.111" />
    </g>
    <path
       d="m 409.95666,176.33036 c 0,5.34279 -4.33277,9.67383 -9.67552,9.67383 H 86.870845 c -5.342776,0 -9.675541,-4.33104 -9.675541,-9.67383 V -34.695174 c 0,-5.342756 4.332765,-9.673825 9.675541,-9.673825 H 400.28114 c 5.34275,0 9.67552,4.331069 9.67552,9.673825 z"
       fill="#ffffff"
       id="path120"
       style="stroke-width:1" />
    <path
       d="M 400.28286,187.70883 H 86.872534 c -6.276055,0 -11.381858,-5.10496 -11.381858,-11.38059 V -34.697317 c 0,-6.276031 5.105803,-11.38058 11.381858,-11.38058 H 400.28286 c 6.27603,0 11.38227,5.104549 11.38227,11.38058 V 176.32824 c 4.3e-4,6.27563 -5.10624,11.38016 -11.38184,11.38016 z M 86.872534,-42.664363 c -4.394546,0 -7.969161,3.574638 -7.969161,7.967474 V 176.32867 c 0,4.39284 3.574615,7.96747 7.969161,7.96747 H 400.28286 c 4.39454,0 7.96916,-3.57505 7.96916,-7.96747 V -34.696889 c 0,-4.392836 -3.57504,-7.967474 -7.96916,-7.967474 z"
       fill="#305d8a"
       id="path122"
       style="stroke-width:1" />
    <g
       opacity="0.2"
       id="g126"
       transform="matrix(0.42615927,0,0,0.42615927,-186.1123,-381.81041)"
       style="stroke-width:2.34654">
      <path
         d="m 1372,791.78 h -7.328 c 9.952,0 18.02,8.067 18.02,18.019 v 490.52 h 12.013 v -485.84 c -10e-4,-12.538 -10.168,-22.7 -22.705,-22.7 z"
         fill="#9db6c9"
         id="path124"
         style="stroke-width:13.111" />
    </g>
    <g
       opacity="0.2"
       id="g130"
       transform="matrix(0.42615927,0,0,0.42615927,-186.1123,-381.81041)"
       style="stroke-width:2.34654">
      <path
         d="m 1350.6,1189.5 c 0,12.537 -10.167,22.699 -22.704,22.699 h -639.32 c -12.537,0 -22.704,-10.162 -22.704,-22.699 V 846.48 c 0,-12.537 10.167,-22.7 22.704,-22.7 h 639.32 c 12.537,0 22.704,10.164 22.704,22.7 z"
         fill="#9db6c9"
         id="path128"
         style="stroke-width:13.111" />
    </g>
    <path
       d="m 389.45841,172.8785 c 0,5.34232 -4.33276,9.6738 -9.67552,9.6738 H 107.33074 c -5.34276,0 -9.675516,-4.33148 -9.675516,-9.6738 V -15.961208 c 0,-5.342755 4.332756,-9.673824 9.675516,-9.673824 h 272.45215 c 5.34276,0 9.67552,4.331069 9.67552,9.673824 z"
       fill="#efefef"
       id="path132"
       style="stroke-width:1" />
    <path
       d="M 379.78459,184.29956 H 107.33245 c -6.27605,0 -11.381867,-5.10456 -11.381867,-11.38016 V -15.9203 c 0,-6.276054 5.105817,-11.380152 11.381867,-11.380152 h 272.45214 c 6.27604,0 11.38186,5.104526 11.38186,11.380152 v 188.8397 c 0,6.27603 -5.10624,11.38059 -11.38186,11.38059 z M 107.33245,-23.887775 c -4.39455,0 -7.968766,3.574616 -7.968766,7.967046 V 172.91897 c 0,4.39283 3.574636,7.96705 7.968766,7.96705 h 272.45214 c 4.39455,0 7.96876,-3.57464 7.96876,-7.96705 V -15.920729 c 0,-4.392859 -3.57464,-7.967046 -7.96876,-7.967046 z"
       fill="#305d8a"
       id="path134"
       style="stroke-width:1" />
    <g
       opacity="0.41"
       id="g138"
       transform="matrix(0.42615927,0,0,0.42615927,-186.1123,-381.81041)"
       style="stroke-width:2.34654">
      <path
         d="M 1326.9,839.83 H 894.63 l 451.98,316.34 V 862.53 c 0,-17.022 -8.591,-22.7 -19.709,-22.7 z"
         fill="#ffffff"
         id="path136"
         style="stroke-width:13.111" />
    </g>
    <path
       d="M 467.44554,174.02912 H 21.384646 c -5.342754,0 -7.794034,4.55606 -6.262409,9.6738 0.509675,1.70677 1.553363,5.66791 1.993154,7.3926 1.321515,5.17613 5.75271,8.53085 11.095466,8.53085 H 460.63467 c 5.34276,0 9.77395,-3.35472 11.0955,-8.53085 0.43978,-1.72469 1.48302,-5.68583 1.99313,-7.3926 1.53119,-5.11731 -0.92007,-9.6738 -6.26284,-9.6738 z"
       fill="#ffffff"
       id="path140"
       style="stroke-width:1" />
    <path
       d="M 460.62701,201.34594 H 28.203189 c -6.126021,0 -11.250167,-3.94455 -12.748551,-9.81574 -0.423171,-1.65649 -1.46981,-5.63638 -1.974819,-7.32568 -0.97847,-3.26437 -0.568061,-6.44225 1.124644,-8.71369 1.514981,-2.03447 3.919806,-3.15442 6.772516,-3.15442 H 467.43788 c 2.85272,0 5.25751,1.11995 6.77251,3.15442 1.69358,2.27144 2.10352,5.44932 1.12508,8.71538 -0.50501,1.68802 -1.55165,5.66793 -1.97482,7.32441 -1.49753,5.87077 -6.62167,9.81532 -12.74814,9.81532 z M 21.384646,175.74866 c -1.773259,0 -3.168064,0.61494 -4.036145,1.78006 -1.041545,1.39781 -1.25632,3.47576 -0.591515,5.69733 0.525034,1.75962 1.56996,5.72759 2.011466,7.46078 1.125073,4.40095 4.831364,7.24597 9.442405,7.24597 H 460.63467 c 4.61148,0 8.31778,-2.84502 9.44242,-7.24597 0.44149,-1.73276 1.48645,-5.70116 2.01146,-7.45906 0.66523,-2.22329 0.45003,-4.30124 -0.5915,-5.69905 -0.86851,-1.16469 -2.26334,-1.78006 -4.03659,-1.78006 H 21.399552 Z"
       fill="#305d8a"
       id="path142"
       style="stroke-width:1" />
    <g
       opacity="0.2"
       id="g146"
       transform="matrix(0.42615927,0,0,0.42615927,-186.1123,-381.81041)"
       style="stroke-width:2.34654">
      <path
         d="M 1076.9,1304.3 H 898.18 v 13.339 c 0,12.537 10.167,22.7 22.704,22.7 h 174.83 c 12.536,0 22.703,-10.163 22.703,-22.7 V 1304.3 Z"
         fill="#9db6c9"
         id="path144"
         style="stroke-width:13.111" />
    </g>
    <path
       d="m 272.81862,174.02912 h -74.38183 c 0.56635,4.80325 4.64597,8.53256 9.6022,8.53256 h 71.0919 c 4.95623,0 9.03543,-3.72974 9.60223,-8.53256 h -15.91364 z"
       fill="#9db6c9"
       id="path148"
       style="stroke-width:1" />
    <path
       d="m 279.12577,184.29956 h -71.09188 c -5.76423,0 -10.62202,-4.31658 -11.29707,-10.03905 -0.0567,-0.48369 0.095,-0.96994 0.41979,-1.33344 0.32344,-0.36438 0.78839,-0.57318 1.27507,-0.57318 h 90.29461 c 0.48667,0 0.9512,0.20835 1.27465,0.57318 0.32516,0.3635 0.47687,0.84975 0.41976,1.33344 -0.67461,5.72247 -5.53241,10.03905 -11.29662,10.03905 z m -78.53263,-8.53257 c 1.15148,3.01934 4.0745,5.11946 7.43904,5.11946 h 71.0919 c 3.36494,0 6.28753,-2.10012 7.43944,-5.11946 h -85.96909 z"
       fill="#305d8a"
       id="path150"
       style="stroke-width:1" />
    <g
       opacity="0.2"
       id="g154"
       transform="matrix(0.42615927,0,0,0.42615927,-186.1123,-381.81041)"
       style="stroke-width:2.34654">
      <path
         d="m 480.37,1348.4 c 4.802,7.478 13.057,12.014 22.559,12.014 h 1014.7 c 9.503,0 17.758,-4.536 22.56,-12.014 h -1059.8 z"
         fill="#9db6c9"
         id="path152"
         style="stroke-width:13.111" />
    </g>
    <g
       opacity="0.33"
       id="g158"
       transform="matrix(0.42615927,0,0,0.42615927,-186.1123,-381.81041)"
       style="stroke-width:2.34654">
      <path
         d="M 1327.9,835.82 H 688.58 c -12.537,0 -22.704,10.163 -22.704,22.7 v 12.013 c 0,-12.537 10.167,-22.7 22.704,-22.7 h 639.32 c 12.537,0 22.704,10.164 22.704,22.7 V 858.52 c 0,-12.537 -10.167,-22.7 -22.704,-22.7 z"
         fill="#9db6c9"
         id="path156"
         style="stroke-width:13.111" />
    </g>
    <g
       opacity="0.2"
       id="g162"
       transform="matrix(0.42615927,0,0,0.42615927,-186.1123,-381.81041)"
       style="stroke-width:2.34654">
      <rect
         x="617.84003"
         y="1292.3"
         width="764.82001"
         height="8.0089998"
         fill="#9db6c9"
         id="rect160"
         style="stroke-width:13.111" />
    </g>
    <circle
       cx="244.4364"
       cy="-35.641232"
       r="1.9198474"
       fill="#305d8a"
       id="circle164"
       style="stroke-width:1" />
    <g
       opacity="0.2"
       id="g168"
       transform="matrix(0.42615927,0,0,0.42615927,-186.1123,-381.81041)"
       style="stroke-width:2.34654">
      <path
         d="m 1366.6,791.98 c 0.665,-0.078 1.314,-0.203 2.002,-0.203 h -2.002 z"
         fill="#9db6c9"
         id="path166"
         style="stroke-width:13.111" />
    </g>
    <path
       d="m 568.65838,201.34594 h -8.53213 c -0.94311,0 -1.70678,-0.7637 -1.70678,-1.70679 0,-0.94308 0.76367,-1.70635 1.70678,-1.70635 h 8.53213 c 0.94351,0 1.70676,0.76327 1.70676,1.70635 0,0.94309 -0.76325,1.70679 -1.70676,1.70679 z m -22.18372,0 h -13.65158 c -0.94352,0 -1.70636,-0.7637 -1.70636,-1.70679 0,-0.94308 0.76284,-1.70635 1.70636,-1.70635 h 13.65158 c 0.94308,0 1.70633,0.76327 1.70633,1.70635 0,0.94309 -0.76367,1.70679 -1.70633,1.70679 z"
       fill="#305d8a"
       id="path170"
       style="stroke-width:1" />
    <path
       d="M 532.81839,201.34594 H -25.194552 c -0.943109,0 -1.706349,-0.7637 -1.706349,-1.70679 0,-0.94308 0.76324,-1.70635 1.706349,-1.70635 H 532.81839 c 0.94351,0 1.70633,0.76327 1.70633,1.70635 0,0.94309 -0.76282,1.70679 -1.70633,1.70679 z"
       fill="#305d8a"
       id="path172"
       style="stroke-width:1" />
    <path
       d="m -26.890663,201.34594 c -0.941395,0 -1.714874,-0.7637 -1.714874,-1.70679 0,-0.94308 0.754717,-1.70635 1.698255,-1.70635 h 0.01666 c 0.943086,0 1.706327,0.76327 1.706327,1.70635 0,0.94309 -0.763241,1.70679 -1.706327,1.70679 z m -13.668205,0 h -13.652015 c -0.943109,0 -1.70635,-0.7637 -1.70635,-1.70679 0,-0.94308 0.763241,-1.70635 1.70635,-1.70635 h 13.652015 c 0.943086,0 1.706326,0.76327 1.706326,1.70635 0,0.94309 -0.76324,1.70679 -1.706326,1.70679 z m -27.303169,0 h -13.652016 c -0.943109,0 -1.706349,-0.7637 -1.706349,-1.70679 0,-0.94308 0.76324,-1.70635 1.706349,-1.70635 h 13.652016 c 0.943085,0 1.706325,0.76327 1.706325,1.70635 0,0.94309 -0.763668,1.70679 -1.706325,1.70679 z"
       fill="#305d8a"
       id="path174"
       style="stroke-width:1" />
    <line
       x1="485.0885"
       x2="494.42139"
       y1="16.921265"
       y2="21.310705"
       fill="#ffffff"
       id="line176"
       style="stroke-width:1" />
    <path
       d="m 494.42144,23.019558 c -0.24292,0 -0.49136,-0.05143 -0.72619,-0.163103 l -9.30944,-4.389454 c -0.85104,-0.401424 -1.21625,-1.418254 -0.81483,-2.271437 0.39847,-0.849743 1.41827,-1.221368 2.27144,-0.814813 l 9.30945,4.389453 c 0.85103,0.401438 1.21626,1.418267 0.81439,2.271438 -0.28978,0.616212 -0.90473,0.978017 -1.54482,0.978017 z"
       fill="#305d8a"
       id="path178"
       style="stroke-width:1" />
    <line
       x1="479.80411"
       x2="479.29279"
       y1="3.4844301"
       y2="-2.579814"
       fill="#ffffff"
       id="line180"
       style="stroke-width:1" />
    <path
       d="m 479.80417,5.1933225 c -0.87875,0 -1.62493,-0.6733272 -1.69782,-1.5644158 l -0.50671,-6.0642561 c -0.0803,-0.9383848 0.61793,-1.7630168 1.55804,-1.8414235 0.95844,-0.1116855 1.76345,0.6183542 1.84145,1.5580248 l 0.50626,6.0642561 c 0.0801,0.9379688 -0.61793,1.7630294 -1.55802,1.8414361 -0.0481,0.00504 -0.0964,0.00756 -0.14311,0.00756 z"
       fill="#305d8a"
       id="path182"
       style="stroke-width:1" />
    <line
       x1="474.17883"
       x2="466.25226"
       y1="9.7532244"
       y2="5.1933084"
       fill="#ffffff"
       id="line184"
       style="stroke-width:1" />
    <path
       d="m 474.17887,11.457881 c -0.28981,0 -0.5817,-0.07336 -0.85146,-0.22835 l -7.90399,-4.5594896 c -0.81652,-0.4717514 -1.0965,-1.5149894 -0.62516,-2.331516 0.47005,-0.8152409 1.50988,-1.0948075 2.3315,-0.6247579 l 7.90441,4.5594897 c 0.8161,0.4717514 1.09607,1.5145608 0.62476,2.3315158 -0.31664,0.546755 -0.88983,0.853171 -1.48006,0.853171 z"
       fill="#305d8a"
       id="path186"
       style="stroke-width:1" />
    <line
       x1="490.6712"
       x2="494.42139"
       y1="9.7532244"
       y2="9.1779366"
       fill="#ffffff"
       id="line188"
       style="stroke-width:1" />
    <path
       d="m 490.67124,11.457881 c -0.82846,0 -1.55464,-0.603454 -1.68461,-1.448104 -0.14358,-0.9315776 0.49603,-1.8013755 1.42805,-1.9445497 l 3.73274,-0.5731885 c 0.93199,-0.145002 1.80009,0.4964709 1.94455,1.4284773 0.14359,0.9315904 -0.49648,1.8013879 -1.42806,1.9445629 l -3.73316,0.573201 c -0.0865,0.01134 -0.17476,0.01903 -0.25951,0.01903 z"
       fill="#305d8a"
       id="path190"
       style="stroke-width:1" />
    <line
       x1="494.42139"
       x2="500.17453"
       y1="75.927238"
       y2="69.321785"
       fill="#ffffff"
       id="line192"
       style="stroke-width:1" />
    <path
       d="m 494.42144,77.631885 c -0.39975,0 -0.80163,-0.139771 -1.12464,-0.423169 -0.70829,-0.621783 -0.7803,-1.699951 -0.15859,-2.407805 l 5.77276,-6.586291 c 0.62135,-0.709997 1.70293,-0.776479 2.4078,-0.1581 0.70829,0.621317 0.77986,1.699939 0.1581,2.408221 l -5.77232,6.585434 c -0.3371,0.384811 -0.80969,0.58171 -1.28316,0.58171 z"
       fill="#305d8a"
       id="path194"
       style="stroke-width:1" />
    <line
       x1="523.44281"
       x2="532.81836"
       y1="62.162327"
       y2="69.321785"
       fill="#ffffff"
       id="line196"
       style="stroke-width:1" />
    <path
       d="m 532.81839,71.026396 c -0.36182,0 -0.7266,-0.115467 -1.03515,-0.35157 l -9.3853,-7.183758 c -0.74834,-0.573604 -0.89154,-1.643264 -0.31792,-2.391607 0.57149,-0.74833 1.64796,-0.889815 2.39118,-0.318354 l 9.38529,7.184212 c 0.74835,0.573604 0.89155,1.642848 0.31793,2.391178 -0.33454,0.439796 -0.84252,0.669899 -1.35603,0.669899 z"
       fill="#305d8a"
       id="path198"
       style="stroke-width:1" />
    <line
       x1="520.75806"
       x2="521.73828"
       y1="71.36731"
       y2="74.222572"
       fill="#ffffff"
       id="line200"
       style="stroke-width:1" />
    <path
       d="m 521.73823,75.927245 c -0.70826,0 -1.37009,-0.444486 -1.61344,-1.151054 l -0.97461,-2.836521 c -0.30683,-0.89153 0.16668,-1.862739 1.05814,-2.168299 0.89325,-0.308118 1.86274,0.168814 2.16788,1.058163 l 0.97507,2.836521 c 0.3064,0.891505 -0.16717,1.86274 -1.05817,2.167858 -0.18358,0.06378 -0.37162,0.09328 -0.55487,0.09328 z"
       fill="#305d8a"
       id="path202"
       style="stroke-width:1" />
    <line
       x1="512.44794"
       x2="510.06143"
       y1="53.511261"
       y2="44.902836"
       fill="#ffffff"
       id="line204"
       style="stroke-width:1" />
    <path
       d="m 512.44798,55.215906 c -0.74664,0 -1.43319,-0.494769 -1.64328,-1.249931 l -2.38265,-8.580709 c -0.25188,-0.908157 0.27956,-1.848269 1.18769,-2.101402 0.90859,-0.249729 1.84827,0.279996 2.10141,1.188127 l 2.38351,8.580734 c 0.25185,0.908132 -0.28,1.848243 -1.18815,2.101376 -0.15382,0.0416 -0.30726,0.06189 -0.45853,0.06189 z"
       fill="#305d8a"
       id="path206"
       style="stroke-width:1" />
    <line
       x1="522.59052"
       x2="524.29517"
       y1="46.053509"
       y2="42.644176"
       fill="#ffffff"
       id="line208"
       style="stroke-width:1" />
    <path
       d="m 522.59054,47.758115 c -0.25653,0 -0.51648,-0.05836 -0.76112,-0.179781 -0.84336,-0.421455 -1.18471,-1.446805 -0.76323,-2.290169 l 1.70634,-3.412672 c 0.42146,-0.843364 1.44808,-1.183462 2.29018,-0.763268 0.84337,0.42148 1.18429,1.446806 0.76281,2.289766 l -1.70675,3.412685 c -0.2996,0.598324 -0.90132,0.943515 -1.52823,0.943515 z"
       fill="#305d8a"
       id="path210"
       style="stroke-width:1" />
    <line
       x1="529.40906"
       x2="538.78461"
       y1="53.511261"
       y2="51.167427"
       fill="#ffffff"
       id="line212"
       style="stroke-width:1" />
    <path
       d="m 529.40912,55.215906 c -0.76667,0 -1.46301,-0.520333 -1.65479,-1.296812 -0.22667,-0.914535 0.33156,-1.839293 1.24652,-2.066017 l 9.38531,-2.322995 c 0.91368,-0.221908 1.83971,0.331124 2.06645,1.246088 0.22667,0.914963 -0.33113,1.839734 -1.24609,2.066874 l -9.38574,2.323007 c -0.13857,0.03328 -0.27531,0.04979 -0.41166,0.04979 z"
       fill="#305d8a"
       id="path214"
       style="stroke-width:1" />
    <line
       x1="532.81836"
       x2="535.92932"
       y1="58.071167"
       y2="58.326889"
       fill="#ffffff"
       id="line216"
       style="stroke-width:1" />
    <path
       d="m 535.92936,60.031516 c -0.0482,0 -0.0986,0 -0.14836,-0.0076 l -3.12799,-0.268045 c -0.93842,-0.08005 -1.63517,-0.906858 -1.55336,-1.846542 0.0801,-0.936279 0.89664,-1.670138 1.84613,-1.55336 l 3.12844,0.268057 c 0.93797,0.0803 1.63431,0.906871 1.55334,1.846554 -0.0766,0.888959 -0.82162,1.560168 -1.69823,1.560168 z"
       fill="#305d8a"
       id="path218"
       style="stroke-width:1" />
    <line
       x1="452.61517"
       x2="454.31985"
       y1="13.631246"
       y2="5.0995779"
       fill="#ffffff"
       id="line220"
       style="stroke-width:1" />
    <path
       d="m 452.6152,15.340174 c -0.11219,0 -0.22288,-0.01008 -0.33667,-0.03328 -0.92306,-0.185012 -1.52308,-1.083286 -1.33813,-2.008057 l 1.70634,-8.5321388 c 0.18501,-0.9247708 1.07819,-1.5316162 2.00807,-1.3381331 0.92306,0.1850122 1.52309,1.083286 1.33856,2.0080568 l -1.70676,8.5325681 c -0.16144,0.811409 -0.87491,1.370945 -1.67141,1.370945 z"
       fill="#305d8a"
       id="path222"
       style="stroke-width:1" />
    <line
       x1="445.37048"
       x2="441.23676"
       y1="12.89406"
       y2="9.7532244"
       fill="#ffffff"
       id="line224"
       style="stroke-width:1" />
    <path
       d="m 445.37051,14.602911 c -0.36012,0 -0.72194,-0.113324 -1.03004,-0.348166 l -4.13799,-3.142912 C 439.45071,10.54206 439.30413,9.47196 439.8756,8.7219404 440.44408,7.9689081 441.51759,7.82528 442.26508,8.395481 l 4.13799,3.142925 c 0.75177,0.569772 0.89792,1.639873 0.32689,2.389489 -0.33498,0.4432 -0.84465,0.675016 -1.35945,0.675016 z"
       fill="#305d8a"
       id="path226"
       style="stroke-width:1" />
    <line
       x1="445.37048"
       x2="435.0574"
       y1="48.610458"
       y2="51.167427"
       fill="#ffffff"
       id="line228"
       style="stroke-width:1" />
    <path
       d="m 435.05745,52.872024 c -0.76496,0 -1.46174,-0.518203 -1.65477,-1.294656 -0.22669,-0.914964 0.33111,-1.841462 1.24438,-2.06816 l 10.3173,-2.55993 c 0.91327,-0.220257 1.83974,0.329825 2.06858,1.244789 0.22621,0.914535 -0.33153,1.841436 -1.24481,2.06816 l -10.31732,2.55993 c -0.13858,0.03328 -0.27699,0.04979 -0.41336,0.04979 z"
       fill="#305d8a"
       id="path230"
       style="stroke-width:1" />
    <line
       x1="452.61517"
       x2="445.37048"
       y1="35.949268"
       y2="33.541424"
       fill="#ffffff"
       id="line232"
       style="stroke-width:1" />
    <path
       d="m 452.6152,37.658144 c -0.17812,0 -0.3601,-0.02811 -0.53823,-0.08698 l -7.23916,-2.409506 c -0.89538,-0.298311 -1.37779,-1.264832 -1.0816,-2.158076 0.29661,-0.894921 1.26527,-1.373063 2.15807,-1.081597 l 7.23874,2.409948 c 0.89536,0.298299 1.3782,1.264844 1.08202,2.158063 -0.23866,0.716388 -0.90472,1.168109 -1.61984,1.168109 z"
       fill="#305d8a"
       id="path234"
       style="stroke-width:1" />
    <line
       x1="459.2207"
       x2="460.58432"
       y1="24.153173"
       y2="16.921265"
       fill="#ffffff"
       id="line236"
       style="stroke-width:1" />
    <path
       d="m 459.22068,25.862054 c -0.10312,0 -0.20787,-0.01009 -0.31324,-0.02862 -0.92646,-0.171688 -1.53801,-1.063293 -1.36668,-1.989753 l 1.34325,-7.232352 c 0.17145,-0.926473 1.06327,-1.544815 1.98973,-1.366685 0.92691,0.171675 1.53803,1.063256 1.36628,1.989741 l -1.34282,7.232339 c -0.15311,0.821645 -0.8698,1.395249 -1.67652,1.395249 z"
       fill="#305d8a"
       id="path238"
       style="stroke-width:1" />
    <line
       x1="472.81516"
       x2="478.18475"
       y1="25.291035"
       y2="16.921265"
       fill="#ffffff"
       id="line240"
       style="stroke-width:1" />
    <path
       d="m 472.81517,26.999897 c -0.31664,0 -0.63841,-0.08862 -0.92307,-0.273163 -0.7935,-0.509694 -1.02066,-1.566559 -0.50841,-2.358366 l 5.40454,-8.370624 c 0.5114,-0.79308 1.56999,-1.020233 2.35794,-0.508408 0.79308,0.509694 1.02023,1.566571 0.50842,2.357937 l -5.40455,8.371052 c -0.32645,0.506694 -0.87448,0.781572 -1.43487,0.781572 z"
       fill="#305d8a"
       id="path242"
       style="stroke-width:1" />
    <line
       x1="477.07669"
       x2="486.75052"
       y1="33.541424"
       y2="34.74324"
       fill="#ffffff"
       id="line244"
       style="stroke-width:1" />
    <path
       d="m 486.75055,36.452105 c -0.0697,0 -0.14143,-0.0025 -0.21359,-0.01424 l -9.67041,-1.204741 c -0.93456,-0.116728 -1.59808,-0.968235 -1.48132,-1.904943 0.11648,-0.934982 0.9546,-1.59298 1.90452,-1.481761 l 9.67081,1.204766 c 0.93457,0.116727 1.59768,0.968234 1.48135,1.904943 -0.10665,0.86381 -0.8438,1.495375 -1.69145,1.495375 z"
       fill="#305d8a"
       id="path246"
       style="stroke-width:1" />
    <line
       x1="436.16541"
       x2="427.00299"
       y1="40.803196"
       y2="38.374058"
       fill="#ffffff"
       id="line248"
       style="stroke-width:1" />
    <path
       d="m 436.16544,42.5121 c -0.14476,0 -0.29318,-0.01903 -0.43935,-0.05622 l -9.14751,-2.428251 c -0.90984,-0.241636 -1.45321,-1.176618 -1.21158,-2.087749 0.24121,-0.909846 1.18003,-1.451508 2.08776,-1.211561 l 9.14751,2.428252 c 0.90987,0.241636 1.45321,1.17663 1.21157,2.087762 -0.20382,0.762814 -0.89322,1.267819 -1.6484,1.267819 z"
       fill="#305d8a"
       id="path250"
       style="stroke-width:1" />
    <line
       x1="431.5629"
       x2="435.0574"
       y1="29.275578"
       y2="28.734373"
       fill="#ffffff"
       id="line252"
       style="stroke-width:1" />
    <path
       d="m 431.56293,30.980223 c -0.82631,0 -1.55333,-0.601728 -1.68461,-1.444688 -0.14524,-0.931981 0.49308,-1.803065 1.42467,-1.948382 l 3.46809,-0.538258 c 0.9401,-0.14025 1.80478,0.493508 1.94795,1.425099 0.14526,0.931577 -0.49305,1.803064 -1.42506,1.947953 l -3.46766,0.538687 c -0.0886,0.01135 -0.17644,0.01903 -0.26338,0.01903 z"
       fill="#305d8a"
       id="path254"
       style="stroke-width:1" />
    <line
       x1="464.5477"
       x2="466.25226"
       y1="39.588665"
       y2="34.74324"
       fill="#ffffff"
       id="line256"
       style="stroke-width:1" />
    <path
       d="m 464.54767,41.297552 c -0.18835,0 -0.38015,-0.03164 -0.5668,-0.09669 -0.88982,-0.313236 -1.35647,-1.287849 -1.04281,-2.176416 l 1.70636,-4.844578 c 0.31278,-0.889816 1.29124,-1.351344 2.17638,-1.043226 0.88939,0.313224 1.35646,1.288291 1.0428,2.176405 l -1.70675,4.844577 c -0.2459,0.701879 -0.90601,1.139974 -1.60918,1.139974 z"
       fill="#305d8a"
       id="path258"
       style="stroke-width:1" />
    <line
       x1="442.38739"
       x2="437.87009"
       y1="21.310705"
       y2="16.921265"
       fill="#ffffff"
       id="line260"
       style="stroke-width:1" />
    <path
       d="m 442.38738,23.019558 c -0.42997,0 -0.86042,-0.16144 -1.19195,-0.484949 l -4.50409,-4.389441 c -0.67504,-0.6567 -0.68826,-1.738297 -0.0298,-2.41291 0.65843,-0.675054 1.73959,-0.684836 2.41292,-0.02975 l 4.50451,4.38944 c 0.67502,0.656726 0.68781,1.737894 0.0297,2.412911 -0.33324,0.343073 -0.77815,0.514799 -1.22136,0.514799 z"
       fill="#305d8a"
       id="path262"
       style="stroke-width:1" />
    <line
       x1="453.46753"
       x2="456.32278"
       y1="44.902836"
       y2="46.053509"
       fill="#ffffff"
       id="line264"
       style="stroke-width:1" />
    <path
       d="m 456.32279,47.758115 c -0.21191,0 -0.42659,-0.03832 -0.63497,-0.121391 l -2.84335,-1.138259 c -0.87489,-0.35157 -1.29977,-1.344953 -0.94989,-2.219869 0.35157,-0.874903 1.34622,-1.298085 2.21943,-0.949919 l 2.84332,1.138297 c 0.87492,0.35157 1.30023,1.344512 0.94992,2.219427 -0.26806,0.666924 -0.90814,1.07179 -1.58446,1.07179 z"
       fill="#305d8a"
       id="path266"
       style="stroke-width:1" />
    <line
       x1="437.87009"
       x2="431.5629"
       y1="86.709068"
       y2="78.484184"
       fill="#ffffff"
       id="line268"
       style="stroke-width:1" />
    <path
       d="m 437.87009,88.413705 c -0.5148,0 -1.02319,-0.231439 -1.35945,-0.672899 l -6.28115,-8.247896 c -0.56977,-0.750032 -0.42446,-1.819691 0.32516,-2.391178 0.75003,-0.571474 1.82012,-0.426573 2.39162,0.32559 l 6.28072,8.247039 c 0.56977,0.750032 0.42488,1.82012 -0.32518,2.391178 -0.3085,0.235737 -0.67161,0.348166 -1.03172,0.348166 z"
       fill="#305d8a"
       id="path270"
       style="stroke-width:1" />
    <line
       x1="428.70764"
       x2="425.72452"
       y1="85.260132"
       y2="82.617989"
       fill="#ffffff"
       id="line272"
       style="stroke-width:1" />
    <path
       d="m 428.70768,86.964756 c -0.40272,0 -0.80801,-0.141434 -1.13318,-0.429976 l -3.00952,-2.670316 c -0.70487,-0.624758 -0.76836,-1.702498 -0.14311,-2.409091 0.62473,-0.704854 1.70633,-0.76879 2.40907,-0.143578 l 3.00996,2.669888 c 0.70488,0.624758 0.76838,1.702913 0.14357,2.409494 -0.33667,0.380134 -0.80672,0.573604 -1.27677,0.573604 z"
       fill="#305d8a"
       id="path274"
       style="stroke-width:1" />
    <line
       x1="431.5629"
       x2="423.89203"
       y1="93.399765"
       y2="96.382919"
       fill="#ffffff"
       id="line276"
       style="stroke-width:1" />
    <path
       d="m 423.89207,98.087545 c -0.68356,0 -1.32791,-0.413817 -1.59127,-1.090547 -0.34009,-0.87832 0.0967,-1.866585 0.97505,-2.207944 l 7.70197,-2.986527 c 0.87363,-0.338384 1.86487,0.09542 2.20836,0.975067 0.34007,0.878294 -0.0967,1.866572 -0.97463,2.207931 l -7.70239,2.986515 c -0.20191,0.07828 -0.41253,0.115467 -0.61709,0.115467 z"
       fill="#305d8a"
       id="path278"
       style="stroke-width:1" />
    <line
       x1="431.5629"
       x2="428.70764"
       y1="100.17567"
       y2="103.79809"
       fill="#ffffff"
       id="line280"
       style="stroke-width:1" />
    <path
       d="m 428.70768,105.50269 c -0.3712,0 -0.74494,-0.12026 -1.05774,-0.37033 -0.7381,-0.58468 -0.86296,-1.65817 -0.27656,-2.39628 l 2.86675,-3.612974 c 0.58471,-0.73812 1.65821,-0.864668 2.39631,-0.276579 0.73812,0.5851 0.86255,1.658173 0.27616,2.396293 l -2.86636,3.61341 c -0.3371,0.42445 -0.83527,0.64646 -1.33856,0.64646 z"
       fill="#305d8a"
       id="path282"
       style="stroke-width:1" />
    <line
       x1="437.87009"
       x2="436.16541"
       y1="97.235207"
       y2="105.50267"
       fill="#ffffff"
       id="line284"
       style="stroke-width:1" />
    <path
       d="m 436.16544,107.20733 c -0.11445,0 -0.22977,-0.0113 -0.34643,-0.035 -0.9235,-0.19168 -1.51673,-1.09481 -1.32664,-2.01615 l 1.70632,-8.247898 c 0.19001,-0.923498 1.09054,-1.5133 2.01659,-1.326208 0.92305,0.19168 1.51671,1.094807 1.32663,2.016149 l -1.70675,8.247477 c -0.16621,0.80672 -0.8779,1.36156 -1.66972,1.36156 z"
       fill="#305d8a"
       id="path286"
       style="stroke-width:1" />
    <line
       x1="495.57196"
       x2="498.98129"
       y1="53.511261"
       y2="43.49654"
       fill="#ffffff"
       id="line288"
       style="stroke-width:1" />
    <path
       d="m 495.57207,55.215906 c -0.18335,0 -0.3682,-0.02811 -0.55145,-0.09164 -0.89154,-0.305144 -1.3684,-1.273366 -1.06328,-2.166169 l 3.41313,-10.002392 c 0.30298,-0.89153 1.27462,-1.371374 2.16657,-1.063255 0.89153,0.304689 1.36797,1.272937 1.06328,2.166168 l -3.41353,10.001938 c -0.24164,0.708711 -0.90475,1.15534 -1.61472,1.15534 z"
       fill="#305d8a"
       id="path290"
       style="stroke-width:1" />
    <line
       x1="489.22226"
       x2="489.77625"
       y1="44.902836"
       y2="40.803196"
       fill="#ffffff"
       id="line292"
       style="stroke-width:1" />
    <path
       d="m 489.22229,46.60749 c -0.0717,0 -0.14311,-0.005 -0.21645,-0.01424 -0.93499,-0.118114 -1.59681,-0.972924 -1.47833,-1.908347 l 0.52161,-4.112861 c 0.11975,-0.934994 0.96353,-1.57977 1.90833,-1.478332 0.93457,0.118366 1.5964,0.973327 1.47836,1.908334 l -0.52162,4.112861 c -0.11043,0.86168 -0.84509,1.491556 -1.69186,1.491556 z"
       fill="#305d8a"
       id="path294"
       style="stroke-width:1" />
    <line
       x1="459.2207"
       x2="450.61224"
       y1="58.326889"
       y2="52.318024"
       fill="#ffffff"
       id="line296"
       style="stroke-width:1" />
    <path
       d="m 459.22068,60.031516 c -0.33667,0 -0.67504,-0.09807 -0.97335,-0.304714 l -8.61011,-5.987967 c -0.77348,-0.538246 -0.96526,-1.601073 -0.42661,-2.375838 0.53612,-0.775167 1.59768,-0.966949 2.37585,-0.427014 l 8.61055,5.987539 c 0.77305,0.538661 0.96524,1.601942 0.42659,2.376681 -0.33156,0.476466 -0.86299,0.731313 -1.40292,0.731313 z"
       fill="#305d8a"
       id="path298"
       style="stroke-width:1" />
    <line
       x1="473.07086"
       x2="474.77548"
       y1="44.348843"
       y2="39.230633"
       fill="#ffffff"
       id="line300"
       style="stroke-width:1" />
    <path
       d="m 473.07085,46.053475 c -0.17811,0 -0.35966,-0.02811 -0.53994,-0.08862 -0.89323,-0.296156 -1.37607,-1.26313 -1.07819,-2.157635 l 1.70677,-5.119455 c 0.29788,-0.893232 1.25801,-1.379895 2.15808,-1.078168 0.89279,0.296597 1.37606,1.26313 1.07776,2.158076 l -1.70678,5.119455 c -0.23787,0.714661 -0.90261,1.166382 -1.6177,1.166382 z"
       fill="#305d8a"
       id="path302"
       style="stroke-width:1" />
    <line
       x1="470.21552"
       x2="472.81516"
       y1="52.318024"
       y2="55.343819"
       fill="#ffffff"
       id="line304"
       style="stroke-width:1" />
    <path
       d="m 472.81517,57.048393 c -0.47773,0 -0.95291,-0.200253 -1.29085,-0.589803 l -2.58805,-2.995049 c -0.61667,-0.712959 -0.53653,-1.791152 0.17477,-2.407805 0.71169,-0.614522 1.78817,-0.538233 2.4078,0.175243 l 2.58807,2.994633 c 0.61624,0.712946 0.53696,1.79114 -0.17477,2.407792 -0.32345,0.27871 -0.71978,0.415077 -1.11696,0.415077 z"
       fill="#305d8a"
       id="path306"
       style="stroke-width:1" />
    <line
       x1="480.40076"
       x2="479.29279"
       y1="51.167427"
       y2="60.031555"
       fill="#ffffff"
       id="line308"
       style="stroke-width:1" />
    <path
       d="m 479.29277,61.736144 c -0.07,0 -0.14191,-0.005 -0.21525,-0.01424 -0.93498,-0.116728 -1.59638,-0.969521 -1.48004,-1.906645 l 1.1114,-8.855586 c 0.11648,-0.931578 0.94992,-1.583173 1.90665,-1.479618 0.93499,0.116475 1.5964,0.96952 1.47962,1.906191 l -1.111,8.855611 c -0.1084,0.861264 -0.84336,1.493257 -1.69141,1.493257 z"
       fill="#305d8a"
       id="path310"
       style="stroke-width:1" />
    <line
       x1="506.35388"
       x2="513.17242"
       y1="63.398148"
       y2="60.031555"
       fill="#ffffff"
       id="line312"
       style="stroke-width:1" />
    <path
       d="m 506.35389,65.102793 c -0.62985,0 -1.23458,-0.348154 -1.53163,-0.949919 -0.41805,-0.844625 -0.0717,-1.868261 0.77307,-2.286338 l 6.82622,-3.373052 c 0.84976,-0.418052 1.87168,-0.07173 2.2859,0.773075 0.41851,0.844625 0.0721,1.86869 -0.77262,2.286766 l -6.8262,3.372624 c -0.24335,0.120257 -0.50161,0.176919 -0.75474,0.176919 z"
       fill="#305d8a"
       id="path314"
       style="stroke-width:1" />
    <line
       x1="510.61548"
       x2="515.72937"
       y1="68.256363"
       y2="68.256363"
       fill="#ffffff"
       id="line316"
       style="stroke-width:1" />
    <path
       d="m 515.72939,69.961022 h -5.11944 c -0.94351,0 -1.70635,-0.763268 -1.70635,-1.706783 0,-0.943087 0.76284,-1.706342 1.70635,-1.706342 h 5.11944 c 0.94353,0 1.70634,0.763255 1.70634,1.706342 0,0.943515 -0.76281,1.706783 -1.70634,1.706783 z"
       fill="#305d8a"
       id="path318"
       style="stroke-width:1" />
    <line
       x1="439.83044"
       x2="446.64896"
       y1="75.927238"
       y2="81.339523"
       fill="#ffffff"
       id="line320"
       style="stroke-width:1" />
    <path
       d="m 446.64897,83.044092 c -0.37033,0 -0.74322,-0.119753 -1.05814,-0.367755 l -6.82623,-5.402854 c -0.73768,-0.585113 -0.86296,-1.658617 -0.27785,-2.397998 0.58298,-0.73812 1.65308,-0.865096 2.39799,-0.278281 l 6.82623,5.402829 c 0.73767,0.58471 0.86253,1.658214 0.27786,2.398023 -0.3371,0.424455 -0.83742,0.646036 -1.33986,0.646036 z"
       fill="#305d8a"
       id="path322"
       style="stroke-width:1" />
    <line
       x1="445.37048"
       x2="442.94131"
       y1="71.239494"
       y2="70.813316"
       fill="#ffffff"
       id="line324"
       style="stroke-width:1" />
    <path
       d="m 445.37051,72.944121 c -0.10186,0 -0.20382,-0.01008 -0.30726,-0.02685 L 442.632,72.475332 c -0.92648,-0.169533 -1.5427,-1.057735 -1.37478,-1.984623 0.16833,-0.928187 1.05304,-1.536293 1.98462,-1.37479 l 2.43124,0.44151 c 0.92689,0.169533 1.54312,1.058138 1.37521,1.984611 -0.15001,0.825476 -0.86852,1.402056 -1.67778,1.402056 z"
       fill="#305d8a"
       id="path326"
       style="stroke-width:1" />
    <line
       x1="453.46753"
       x2="459.90253"
       y1="65.742058"
       y2="70.813316"
       fill="#ffffff"
       id="line328"
       style="stroke-width:1" />
    <path
       d="m 459.90253,72.517977 c -0.36862,0 -0.73981,-0.118115 -1.05348,-0.364377 l -6.43755,-5.059793 c -0.73981,-0.581269 -0.86978,-1.654773 -0.28638,-2.396296 0.5813,-0.739809 1.65308,-0.873202 2.3963,-0.286374 l 6.43713,5.059377 c 0.73982,0.581281 0.86979,1.654773 0.28681,2.396271 -0.33667,0.4283 -0.83656,0.651192 -1.34283,0.651192 z"
       fill="#305d8a"
       id="path330"
       style="stroke-width:1" />
    <line
       x1="466.25226"
       x2="468.89447"
       y1="67.105774"
       y2="71.36731"
       fill="#ffffff"
       id="line332"
       style="stroke-width:1" />
    <path
       d="m 468.8945,73.071992 c -0.57362,0 -1.13146,-0.288517 -1.45493,-0.80972 l -2.63662,-4.274376 c -0.49308,-0.803316 -0.24464,-1.855076 0.55699,-2.349845 0.80329,-0.494769 1.85336,-0.243326 2.34982,0.556562 l 2.63664,4.274376 c 0.49308,0.803304 0.24464,1.855063 -0.55699,2.349845 -0.2804,0.171436 -0.59022,0.253158 -0.89491,0.253158 z"
       fill="#305d8a"
       id="path334"
       style="stroke-width:1" />
    <line
       x1="497.31924"
       x2="502.26276"
       y1="92.121284"
       y2="86.709068"
       fill="#ffffff"
       id="line336"
       style="stroke-width:1" />
    <path
       d="m 497.31931,93.825925 c -0.41337,0 -0.82631,-0.148343 -1.15318,-0.448318 -0.69507,-0.638372 -0.74154,-1.716137 -0.10526,-2.411208 l 4.95667,-5.404543 c 0.63625,-0.695072 1.71785,-0.741524 2.4108,-0.104753 0.69547,0.637969 0.7415,1.716137 0.10526,2.411196 l -4.95624,5.404568 c -0.33665,0.366911 -0.79648,0.553133 -1.25801,0.553133 z"
       fill="#305d8a"
       id="path338"
       style="stroke-width:1" />
    <line
       x1="506.35388"
       x2="509.76315"
       y1="94.891296"
       y2="93.825951"
       fill="#ffffff"
       id="line340"
       style="stroke-width:1" />
    <path
       d="m 506.35389,96.595964 c -0.7266,0 -1.39993,-0.46705 -1.62791,-1.198337 -0.28171,-0.89835 0.22024,-1.85679 1.11993,-2.136785 l 3.41269,-1.066672 c 0.89663,-0.286374 1.85505,0.218581 2.13676,1.119955 0.28169,0.897921 -0.22025,1.856336 -1.11995,2.136344 l -3.4131,1.066659 c -0.16835,0.05357 -0.34008,0.07878 -0.50842,0.07878 z"
       fill="#305d8a"
       id="path342"
       style="stroke-width:1" />
    <line
       x1="511.2547"
       x2="521.22681"
       y1="83.939056"
       y2="82.617989"
       fill="#ffffff"
       id="line344"
       style="stroke-width:1" />
    <path
       d="m 511.25473,85.643666 c -0.84338,0 -1.57424,-0.623031 -1.68972,-1.480047 -0.1248,-0.934565 0.53141,-1.792854 1.46513,-1.917725 l 9.98406,-1.335158 c 0.94478,-0.114963 1.79283,0.53314 1.9177,1.465147 0.1253,0.934994 -0.53141,1.792854 -1.46469,1.918154 l -9.98406,1.334729 c -0.0766,0.01009 -0.15311,0.01424 -0.22835,0.01424 z"
       fill="#305d8a"
       id="path346"
       style="stroke-width:1" />
    <line
       x1="517.6897"
       x2="520.03357"
       y1="92.121284"
       y2="91.141167"
       fill="#ffffff"
       id="line348"
       style="stroke-width:1" />
    <path
       d="m 517.68972,93.825925 c -0.6601,0 -1.28784,-0.384811 -1.56655,-1.029599 -0.37331,-0.865096 0.0252,-1.869975 0.89025,-2.24329 l 2.30765,-0.996799 c 0.86851,-0.372886 1.87169,0.02685 2.24329,0.890244 0.37332,0.864252 -0.0252,1.869585 -0.88981,2.242886 l -2.30809,0.996787 c -0.22025,0.09542 -0.45,0.139771 -0.67674,0.139771 z"
       fill="#305d8a"
       id="path350"
       style="stroke-width:1" />
    <line
       x1="448.99286"
       x2="442.38739"
       y1="105.50267"
       y2="110.91489"
       fill="#ffffff"
       id="line352"
       style="stroke-width:1" />
    <path
       d="m 442.38738,112.61956 c -0.49476,0 -0.98613,-0.21311 -1.3228,-0.62644 -0.59618,-0.73002 -0.48837,-1.80607 0.24164,-2.40142 l 6.61867,-5.40454 c 0.73386,-0.59664 1.80649,-0.48839 2.40184,0.24164 0.59661,0.72957 0.48837,1.80604 -0.24163,2.40096 l -6.61867,5.40456 c -0.31878,0.25867 -0.70061,0.38524 -1.07905,0.38524 z"
       fill="#305d8a"
       id="path354"
       style="stroke-width:1" />
    <line
       x1="452.61517"
       x2="459.2207"
       y1="97.235207"
       y2="98.385895"
       fill="#ffffff"
       id="line356"
       style="stroke-width:1" />
    <path
       d="m 459.22068,100.09048 c -0.0956,0 -0.19359,-0.0101 -0.29021,-0.0247 l -6.6191,-1.137015 c -0.9299,-0.158099 -1.55336,-1.041095 -1.39355,-1.969269 0.15858,-0.928603 1.04026,-1.549932 1.97013,-1.393547 l 6.6191,1.136582 c 0.92988,0.158579 1.55336,1.041511 1.39312,1.969698 -0.14097,0.831868 -0.86297,1.418251 -1.67949,1.418251 z"
       fill="#305d8a"
       id="path358"
       style="stroke-width:1" />
    <line
       x1="456.66373"
       x2="463.1413"
       y1="109.76429"
       y2="105.50267"
       fill="#ffffff"
       id="line360"
       style="stroke-width:1" />
    <path
       d="m 456.66372,111.46895 c -0.55315,0 -1.09649,-0.2685 -1.42507,-0.76539 -0.51992,-0.78627 -0.3047,-1.84443 0.48199,-2.36478 l 6.44949,-4.26627 c 0.78498,-0.5216 1.84272,-0.3064 2.36475,0.48198 0.51991,0.7867 0.30471,1.84443 -0.48155,2.36478 l -6.44949,4.26627 c -0.29022,0.19144 -0.61667,0.28341 -0.94012,0.28341 z"
       fill="#305d8a"
       id="path362"
       style="stroke-width:1" />
    <line
       x1="475.49991"
       x2="472.81516"
       y1="101.36899"
       y2="108.18752"
       fill="#ffffff"
       id="line364"
       style="stroke-width:1" />
    <path
       d="m 472.81517,109.89216 c -0.20978,0 -0.42148,-0.0383 -0.62816,-0.11976 -0.87661,-0.34647 -1.30491,-1.33856 -0.95846,-2.21476 l 2.70185,-6.82578 c 0.34819,-0.877038 1.34455,-1.303636 2.21434,-0.958016 0.87661,0.346476 1.30533,1.338136 0.95842,2.214336 l -2.70141,6.82621 c -0.26465,0.66993 -0.90814,1.07777 -1.58658,1.07777 z"
       fill="#305d8a"
       id="path366"
       style="stroke-width:1" />
    <line
       x1="481.89233"
       x2="483.38385"
       y1="107.6335"
       y2="110.91489"
       fill="#ffffff"
       id="line368"
       style="stroke-width:1" />
    <path
       d="m 483.3839,112.61956 c -0.64689,0 -1.26653,-0.36778 -1.55333,-0.99465 l -1.5001,-3.27162 c -0.39334,-0.85616 -0.0166,-1.86958 0.83996,-2.26291 0.86979,-0.39036 1.8734,-0.0142 2.26333,0.83996 l 1.50008,3.27118 c 0.39335,0.85702 0.0166,1.87002 -0.83996,2.26335 -0.23144,0.10525 -0.47346,0.15477 -0.70998,0.15477 z"
       fill="#305d8a"
       id="path370"
       style="stroke-width:1" />
    <line
       x1="465.39996"
       x2="456.66373"
       y1="85.260132"
       y2="82.617989"
       fill="#ffffff"
       id="line372"
       style="stroke-width:1" />
    <path
       d="m 465.39999,86.964756 c -0.16525,0 -0.33326,-0.02382 -0.50032,-0.075 l -8.7256,-2.670316 c -0.89963,-0.274878 -1.40847,-1.229914 -1.13145,-2.131239 0.27531,-0.901324 1.2252,-1.412707 2.13164,-1.131452 l 8.72561,2.669888 c 0.89961,0.275306 1.40846,1.229889 1.13147,2.131667 -0.22503,0.734691 -0.89964,1.20643 -1.63135,1.20643 z"
       fill="#305d8a"
       id="path374"
       style="stroke-width:1" />
    <line
       x1="486.75052"
       x2="488.1568"
       y1="94.379959"
       y2="91.141167"
       fill="#ffffff"
       id="line376"
       style="stroke-width:1" />
    <path
       d="m 486.75055,96.08458 c -0.22835,0 -0.46153,-0.04639 -0.68482,-0.143111 -0.86339,-0.380134 -1.25461,-1.38674 -0.87662,-2.249706 l 1.42124,-3.236685 c 0.38015,-0.862524 1.38161,-1.251205 2.2497,-0.876605 0.86299,0.380147 1.25461,1.386715 0.8766,2.249694 l -1.42166,3.236697 c -0.28125,0.639671 -0.90813,1.019792 -1.56444,1.019792 z"
       fill="#305d8a"
       id="path378"
       style="stroke-width:1" />
    <line
       x1="497.27667"
       x2="502.64627"
       y1="104.77826"
       y2="105.92883"
       fill="#ffffff"
       id="line380"
       style="stroke-width:1" />
    <path
       d="m 502.64631,107.6335 c -0.11597,0 -0.23478,-0.0113 -0.35329,-0.0362 l -5.40414,-1.13828 c -0.92134,-0.19526 -1.51371,-1.09991 -1.3181,-2.02169 0.19477,-0.92136 1.1063,-1.51457 2.02127,-1.31771 l 5.40457,1.13787 c 0.92092,0.19525 1.51328,1.0999 1.31811,2.02127 -0.17001,0.80331 -0.87789,1.35476 -1.66842,1.35476 z"
       fill="#305d8a"
       id="path382"
       style="stroke-width:1" />
    <line
       x1="430.41226"
       x2="531.11371"
       y1="138.18907"
       y2="138.18907"
       fill="#ffffff"
       id="line384"
       style="stroke-width:1" />
    <path
       d="M 531.11375,139.89376 H 430.43362 c -0.94308,0 -1.70678,-0.76327 -1.70678,-1.70677 0,-0.94309 0.7637,-1.70633 1.70678,-1.70633 h 100.68013 c 0.94308,0 1.70633,0.76324 1.70633,1.70633 0,0.9435 -0.76325,1.70677 -1.70633,1.70677 z"
       fill="#305d8a"
       id="path386"
       style="stroke-width:1" />
    <path
       d="m 81.737322,164.22745 c 0,-12.91177 -10.430666,-23.38037 -23.322408,-23.46049 v -3.13313 c 0,-5.34276 -4.332766,-9.67337 -9.675517,-9.67337 H 10.070976 c -5.3427551,0 -9.67551588,4.33061 -9.67551588,9.67337 v 52.32383 c 0,5.34275 4.33276078,9.67383 9.67551588,9.67383 h 38.668421 c 5.342751,0 9.675517,-4.33108 9.675517,-9.67383 v -2.26972 c 12.892145,-0.0798 23.322408,-10.54872 23.322408,-23.46006 z m -23.32198,13.22158 v -26.44359 c 7.23916,0.0784 13.083499,5.96451 13.083499,13.22158 0,7.25707 -5.844339,13.1436 -13.083499,13.22201 z"
       fill="#eae8e1"
       id="path388"
       style="stroke-width:1" />
    <path
       d="M 48.739826,201.34594 H 10.071405 c -6.2760553,0 -11.381866,-5.10499 -11.381866,-11.38061 v -52.32384 c 0,-6.27603 5.1062393,-11.38015 11.381866,-11.38015 h 38.668421 c 6.27603,0 11.381833,5.10455 11.381833,11.38015 v 1.49327 c 13.006806,0.9563 23.322434,11.87835 23.322434,25.09992 0,13.22161 -10.315628,24.14364 -23.322434,25.10037 v 0.62985 c 0,6.27605 -5.105803,11.38104 -11.381833,11.38104 z M 10.071405,129.67445 c -4.394551,0 -7.9691893,3.57507 -7.9691893,7.96747 v 52.32384 c 0,4.39328 3.5746383,7.96747 7.9691893,7.96747 h 38.668421 c 4.394974,0 7.969161,-3.57462 7.969161,-7.96747 v -2.26973 c 0,-0.93795 0.758151,-1.69951 1.696107,-1.70634 11.92352,-0.0734 21.625873,-9.83234 21.625873,-21.75415 0,-11.9218 -9.702353,-21.68084 -21.625873,-21.75413 -0.938385,-0.008 -1.696107,-0.76839 -1.696107,-1.70636 v -3.13313 c 0,-4.39283 -3.574615,-7.96747 -7.969161,-7.96747 z m 48.343509,49.48988 c -0.450032,0 -0.879605,-0.17644 -1.199661,-0.49308 -0.324733,-0.32004 -0.506266,-0.75599 -0.506266,-1.21327 v -26.44359 c 0,-0.45643 0.181445,-0.89324 0.506266,-1.21329 0.325173,-0.32173 0.783298,-0.5246 1.217964,-0.49305 8.145627,0.0884 14.771537,6.78444 14.771537,14.92792 0,8.1439 -6.62591,14.84015 -14.771537,14.92794 -0.0076,4.2e-4 -0.01134,4.2e-4 -0.01904,4.2e-4 z m 1.706316,-26.29489 v 22.7339 c 5.467647,-0.89323 9.670424,-5.67089 9.670424,-11.36694 0,-5.69603 -4.202777,-10.4737 -9.670424,-11.36696 z"
       fill="#305d8a"
       id="path390"
       style="stroke-width:1" />
    <g
       opacity="0.2"
       id="g394"
       transform="matrix(0.42615927,0,0,0.42615927,-186.1123,-381.81041)"
       style="stroke-width:2.34654">
      <path
         d="m 573.8,1226.3 v -7.352 c 0,-12.537 -10.167,-22.699 -22.704,-22.699 h -29.352 v 168.18 h 29.352 c 12.537,0 22.704,-10.163 22.704,-22.7 v -5.326 c 30.251,-0.188 54.727,-24.753 54.727,-55.051 0,-30.298 -24.476,-54.864 -54.727,-55.051 z m 0,86.076 v -62.051 c 16.987,0.184 30.701,13.996 30.701,31.025 0,17.029 -13.714,30.842 -30.701,31.026 z"
         fill="#9db6c9"
         id="path392"
         style="stroke-width:13.111" />
    </g>
    <line
       x1="10.636893"
       x2="48.177288"
       y1="134.7798"
       y2="134.7798"
       fill="#ffffff"
       id="line396"
       style="stroke-width:1" />
    <path
       d="M 48.177289,136.48449 H 10.635204 c -0.9430861,0 -1.7063503,-0.76327 -1.7063503,-1.70678 0,-0.94309 0.7632642,-1.70632 1.7063503,-1.70632 h 37.542085 c 0.943087,0 1.706746,0.76323 1.706746,1.70632 0,0.94351 -0.763659,1.70678 -1.706746,1.70678 z"
       fill="#305d8a"
       id="path398"
       style="stroke-width:1" />
    <text
       xml:space="preserve"
       style="font-size:40.9113px;line-height:1.25;font-family:sans-serif;-inkscape-font-specification:'sans-serif, Normal';text-align:center;text-anchor:middle;fill:#6a97bc;fill-opacity:1;stroke-width:1"
       x="241.94791"
       y="96.476646"
       id="text1905"><tspan
         sodipodi:role="line"
         id="tspan1903"
         x="241.94791"
         y="96.476646"
         style="font-size:40.9113px;fill:#6a97bc;fill-opacity:1;stroke-width:1">3NCR1PT4D0R</tspan></text>
  </g>
</svg>
