<?xml version="1.0" encoding="UTF-8" standalone="no"?>
<svg
   viewBox="0 0 12.693333 19.314286"
   width="17"
   height="26"
   version="1.1"
   id="svg4"
   sodipodi:docname="logoAluraLetraA.svg"
   inkscape:version="1.1.2 (b8e25be833, 2022-02-05)"
   xmlns:inkscape="http://www.inkscape.org/namespaces/inkscape"
   xmlns:sodipodi="http://sodipodi.sourceforge.net/DTD/sodipodi-0.dtd"
   xmlns="http://www.w3.org/2000/svg"
   xmlns:svg="http://www.w3.org/2000/svg">
  <defs
     id="defs8" />
  <sodipodi:namedview
     id="namedview6"
     pagecolor="#ffffff"
     bordercolor="#666666"
     borderopacity="1.0"
     inkscape:pageshadow="2"
     inkscape:pageopacity="0.0"
     inkscape:pagecheckerboard="true"
     showgrid="false"
     inkscape:zoom="4.26"
     inkscape:cx="-16.431925"
     inkscape:cy="23.239437"
     inkscape:window-width="1920"
     inkscape:window-height="1017"
     inkscape:window-x="-8"
     inkscape:window-y="-8"
     inkscape:window-maximized="1"
     inkscape:current-layer="svg4" />
  <path
     id="path3730"
     style="opacity:1;fill:#ffffff;fill-opacity:1;fill-rule:evenodd;stroke:none;stroke-width:0.999787;stroke-miterlimit:4;stroke-dasharray:none;stroke-opacity:1"
     d="m 6.3459375,0.32162195 c -1.059356,9.79e-5 -1.971311,0.1030355 -2.713959,0.3529168 -0.763,0.2079999 -1.399083,0.51949985 -1.887082,0.89249995 -0.487001,0.3749999 -0.848084,0.8099999 -1.082084,1.3299997 -0.233,0.5190005 -0.339792,1.0590839 -0.339792,1.6420835 v 0.5993747 a 0.233,0.233 0 0 0 0.233334,0.2304169 l 2.587083,-0.042291 c 0.128,0 0.234792,-0.082083 0.234792,-0.2070836 0.042,-0.5810007 0.253958,-1.1006665 0.613958,-1.5166666 0.424,-0.476 1.208041,-0.7058337 2.396042,-0.7058337 0.574,0 1.082166,0.063667 1.464166,0.1866666 0.381,0.126 0.700334,0.2922088 0.933333,0.5002085 0.233001,0.2069999 0.403084,0.4339581 0.487084,0.6839586 a 1.69,1.69 0 0 1 0.150208,0.7072912 V 5.6401642 A 1.6,1.6 0 0 1 9.2523955,6.366414 c -0.106999,0.2079997 -0.234083,0.3950005 -0.382083,0.5599995 -0.149,0.166 -0.29625,0.290334 -0.44625,0.3733335 l -0.382084,0.188125 a 9.2600003,9.2600003 0 0 0 -0.7,0.247916 c -0.380999,0.146001 -0.825832,0.312792 -1.335833,0.479792 -0.51,0.165 -1.017166,0.351584 -1.569167,0.539583 -0.550999,0.187001 -1.038708,0.331876 -1.462708,0.476875 -0.849,0.312001 -1.506125,0.809626 -1.973125,1.535625 -0.467,0.707 -0.7,1.517208 -0.7,2.390209 v 1.640624 c 0,0.415001 0.08479,0.872376 0.234792,1.369376 a 3.326,3.326 0 0 0 0.911458,1.369375 c 0.445,0.417 1.060792,0.769791 1.844792,1.039791 0.784,0.270001 1.805208,0.415626 3.055208,0.415626 1.252,0 2.268751,-0.145625 3.05375,-0.415626 0.7850005,-0.27 1.4012505,-0.622791 1.8462505,-1.039791 0.467001,-0.414 0.762917,-0.869375 0.912917,-1.369375 0.148,-0.498 0.231875,-0.955833 0.231875,-1.370834 V 4.5376637 c 0,-1.2040001 -0.488166,-2.2200001 -1.464167,-3.0100001 C 9.9532565,0.71785945 8.4266255,0.32181285 6.3473955,0.32162195 Z m 3.05375,9.20062505 h 0.0015 a 0.726,0.726 0 0 1 -0.0015,0.0029 v 4.235001 c 0,0.83 -0.211375,1.472374 -0.634375,1.929375 -0.426,0.456999 -1.232834,0.685416 -2.420833,0.685416 -1.165,0 -1.950167,-0.206125 -2.374167,-0.643125 -0.425,-0.415 -0.637292,-1.079708 -0.637292,-1.952708 0,-0.436 0.107084,-0.809583 0.277083,-1.099583 a 3.422,3.422 0 0 1 0.593542,-0.705834 3.57,3.57 0 0 1 0.805,-0.478333 c 0.383,-0.145 0.786417,-0.270625 1.210417,-0.415625 0.34,-0.105 0.72125,-0.250209 1.14625,-0.395208 0.403,-0.145001 0.782792,-0.26875 1.144791,-0.393751 0.170001,-0.062 0.338834,-0.123916 0.530834,-0.247916 a 0.726,0.726 0 0 0 0.35875,-0.517709 z"
     inkscape:export-filename="C:\projetos\criptografia\img\alura2.png"
     inkscape:export-xdpi="96"
     inkscape:export-ydpi="96" />
</svg>
